%FSLAX45Y45*%
G04 Gerber Fmt 4.5, Leading zero omitted, Abs format (unit mm)*
G04 Created by KiCad (PCBNEW (5.1.10-1-10_14)) date 2022-03-30 11:01:11*
%MOMM*%
%LPD*%
G01*
G04 APERTURE LIST*
%TA.AperFunction,Profile*%
%ADD10C,0.050000*%
%TD*%
%ADD11C,0.200000*%
%ADD12C,0.300000*%
G04 APERTURE END LIST*
D10*
X16220000Y-3800000D02*
G75*
G02*
X16720000Y-4300000I0J-500000D01*
G01*
X16720000Y-16800000D02*
G75*
G02*
X16220000Y-17300000I-500000J0D01*
G01*
X4020000Y-17300000D02*
G75*
G02*
X3520000Y-16800000I0J500000D01*
G01*
X3520000Y-4300000D02*
G75*
G02*
X4020000Y-3800000I500000J0D01*
G01*
X3520000Y-4300000D02*
X3520000Y-16800000D01*
X4020000Y-17300000D02*
X16220000Y-17300000D01*
X16720000Y-4300000D02*
X16720000Y-16800000D01*
X4020000Y-3800000D02*
X16220000Y-3800000D01*
D11*
X7488000Y-6545500D02*
X7568000Y-6625500D01*
X7568000Y-6545500D02*
X7488000Y-6625500D01*
X7488000Y-6974500D02*
X7568000Y-7054500D01*
X7568000Y-6974500D02*
X7488000Y-7054500D01*
X7488000Y-9045500D02*
X7568000Y-9125500D01*
X7568000Y-9045500D02*
X7488000Y-9125500D01*
X7488000Y-9474500D02*
X7568000Y-9554500D01*
X7568000Y-9474500D02*
X7488000Y-9554500D01*
X7488000Y-11545500D02*
X7568000Y-11625500D01*
X7568000Y-11545500D02*
X7488000Y-11625500D01*
X7488000Y-11974500D02*
X7568000Y-12054500D01*
X7568000Y-11974500D02*
X7488000Y-12054500D01*
X7488000Y-14045500D02*
X7568000Y-14125500D01*
X7568000Y-14045500D02*
X7488000Y-14125500D01*
X7488000Y-14474500D02*
X7568000Y-14554500D01*
X7568000Y-14474500D02*
X7488000Y-14554500D01*
X7704000Y-6545500D02*
X7784000Y-6625500D01*
X7784000Y-6545500D02*
X7704000Y-6625500D01*
X7704000Y-6974500D02*
X7784000Y-7054500D01*
X7784000Y-6974500D02*
X7704000Y-7054500D01*
X7704000Y-9045500D02*
X7784000Y-9125500D01*
X7784000Y-9045500D02*
X7704000Y-9125500D01*
X7704000Y-9474500D02*
X7784000Y-9554500D01*
X7784000Y-9474500D02*
X7704000Y-9554500D01*
X7704000Y-11545500D02*
X7784000Y-11625500D01*
X7784000Y-11545500D02*
X7704000Y-11625500D01*
X7704000Y-11974500D02*
X7784000Y-12054500D01*
X7784000Y-11974500D02*
X7704000Y-12054500D01*
X7704000Y-14045500D02*
X7784000Y-14125500D01*
X7784000Y-14045500D02*
X7704000Y-14125500D01*
X7704000Y-14474500D02*
X7784000Y-14554500D01*
X7784000Y-14474500D02*
X7704000Y-14554500D01*
X7920000Y-6545500D02*
X8000000Y-6625500D01*
X8000000Y-6545500D02*
X7920000Y-6625500D01*
X7920000Y-6974500D02*
X8000000Y-7054500D01*
X8000000Y-6974500D02*
X7920000Y-7054500D01*
X7920000Y-9045500D02*
X8000000Y-9125500D01*
X8000000Y-9045500D02*
X7920000Y-9125500D01*
X7920000Y-9474500D02*
X8000000Y-9554500D01*
X8000000Y-9474500D02*
X7920000Y-9554500D01*
X7920000Y-11545500D02*
X8000000Y-11625500D01*
X8000000Y-11545500D02*
X7920000Y-11625500D01*
X7920000Y-11974500D02*
X8000000Y-12054500D01*
X8000000Y-11974500D02*
X7920000Y-12054500D01*
X7920000Y-14045500D02*
X8000000Y-14125500D01*
X8000000Y-14045500D02*
X7920000Y-14125500D01*
X7920000Y-14474500D02*
X8000000Y-14554500D01*
X8000000Y-14474500D02*
X7920000Y-14554500D01*
X8136000Y-6545500D02*
X8216000Y-6625500D01*
X8216000Y-6545500D02*
X8136000Y-6625500D01*
X8136000Y-6974500D02*
X8216000Y-7054500D01*
X8216000Y-6974500D02*
X8136000Y-7054500D01*
X8136000Y-9045500D02*
X8216000Y-9125500D01*
X8216000Y-9045500D02*
X8136000Y-9125500D01*
X8136000Y-9474500D02*
X8216000Y-9554500D01*
X8216000Y-9474500D02*
X8136000Y-9554500D01*
X8136000Y-11545500D02*
X8216000Y-11625500D01*
X8216000Y-11545500D02*
X8136000Y-11625500D01*
X8136000Y-11974500D02*
X8216000Y-12054500D01*
X8216000Y-11974500D02*
X8136000Y-12054500D01*
X8136000Y-14045500D02*
X8216000Y-14125500D01*
X8216000Y-14045500D02*
X8136000Y-14125500D01*
X8136000Y-14474500D02*
X8216000Y-14554500D01*
X8216000Y-14474500D02*
X8136000Y-14554500D01*
X8352000Y-6545500D02*
X8432000Y-6625500D01*
X8432000Y-6545500D02*
X8352000Y-6625500D01*
X8352000Y-6974500D02*
X8432000Y-7054500D01*
X8432000Y-6974500D02*
X8352000Y-7054500D01*
X8352000Y-9045500D02*
X8432000Y-9125500D01*
X8432000Y-9045500D02*
X8352000Y-9125500D01*
X8352000Y-9474500D02*
X8432000Y-9554500D01*
X8432000Y-9474500D02*
X8352000Y-9554500D01*
X8352000Y-11545500D02*
X8432000Y-11625500D01*
X8432000Y-11545500D02*
X8352000Y-11625500D01*
X8352000Y-11974500D02*
X8432000Y-12054500D01*
X8432000Y-11974500D02*
X8352000Y-12054500D01*
X8352000Y-14045500D02*
X8432000Y-14125500D01*
X8432000Y-14045500D02*
X8352000Y-14125500D01*
X8352000Y-14474500D02*
X8432000Y-14554500D01*
X8432000Y-14474500D02*
X8352000Y-14554500D01*
X8568000Y-6545500D02*
X8648000Y-6625500D01*
X8648000Y-6545500D02*
X8568000Y-6625500D01*
X8568000Y-6974500D02*
X8648000Y-7054500D01*
X8648000Y-6974500D02*
X8568000Y-7054500D01*
X8568000Y-9045500D02*
X8648000Y-9125500D01*
X8648000Y-9045500D02*
X8568000Y-9125500D01*
X8568000Y-9474500D02*
X8648000Y-9554500D01*
X8648000Y-9474500D02*
X8568000Y-9554500D01*
X8568000Y-11545500D02*
X8648000Y-11625500D01*
X8648000Y-11545500D02*
X8568000Y-11625500D01*
X8568000Y-11974500D02*
X8648000Y-12054500D01*
X8648000Y-11974500D02*
X8568000Y-12054500D01*
X8568000Y-14045500D02*
X8648000Y-14125500D01*
X8648000Y-14045500D02*
X8568000Y-14125500D01*
X8568000Y-14474500D02*
X8648000Y-14554500D01*
X8648000Y-14474500D02*
X8568000Y-14554500D01*
X8784000Y-6545500D02*
X8864000Y-6625500D01*
X8864000Y-6545500D02*
X8784000Y-6625500D01*
X8784000Y-6974500D02*
X8864000Y-7054500D01*
X8864000Y-6974500D02*
X8784000Y-7054500D01*
X8784000Y-9045500D02*
X8864000Y-9125500D01*
X8864000Y-9045500D02*
X8784000Y-9125500D01*
X8784000Y-9474500D02*
X8864000Y-9554500D01*
X8864000Y-9474500D02*
X8784000Y-9554500D01*
X8784000Y-11545500D02*
X8864000Y-11625500D01*
X8864000Y-11545500D02*
X8784000Y-11625500D01*
X8784000Y-11974500D02*
X8864000Y-12054500D01*
X8864000Y-11974500D02*
X8784000Y-12054500D01*
X8784000Y-14045500D02*
X8864000Y-14125500D01*
X8864000Y-14045500D02*
X8784000Y-14125500D01*
X8784000Y-14474500D02*
X8864000Y-14554500D01*
X8864000Y-14474500D02*
X8784000Y-14554500D01*
X9000000Y-6545500D02*
X9080000Y-6625500D01*
X9080000Y-6545500D02*
X9000000Y-6625500D01*
X9000000Y-6974500D02*
X9080000Y-7054500D01*
X9080000Y-6974500D02*
X9000000Y-7054500D01*
X9000000Y-9045500D02*
X9080000Y-9125500D01*
X9080000Y-9045500D02*
X9000000Y-9125500D01*
X9000000Y-9474500D02*
X9080000Y-9554500D01*
X9080000Y-9474500D02*
X9000000Y-9554500D01*
X9000000Y-11545500D02*
X9080000Y-11625500D01*
X9080000Y-11545500D02*
X9000000Y-11625500D01*
X9000000Y-11974500D02*
X9080000Y-12054500D01*
X9080000Y-11974500D02*
X9000000Y-12054500D01*
X9000000Y-14045500D02*
X9080000Y-14125500D01*
X9080000Y-14045500D02*
X9000000Y-14125500D01*
X9000000Y-14474500D02*
X9080000Y-14554500D01*
X9080000Y-14474500D02*
X9000000Y-14554500D01*
X9216000Y-6545500D02*
X9296000Y-6625500D01*
X9296000Y-6545500D02*
X9216000Y-6625500D01*
X9216000Y-6974500D02*
X9296000Y-7054500D01*
X9296000Y-6974500D02*
X9216000Y-7054500D01*
X9216000Y-9045500D02*
X9296000Y-9125500D01*
X9296000Y-9045500D02*
X9216000Y-9125500D01*
X9216000Y-9474500D02*
X9296000Y-9554500D01*
X9296000Y-9474500D02*
X9216000Y-9554500D01*
X9216000Y-11545500D02*
X9296000Y-11625500D01*
X9296000Y-11545500D02*
X9216000Y-11625500D01*
X9216000Y-11974500D02*
X9296000Y-12054500D01*
X9296000Y-11974500D02*
X9216000Y-12054500D01*
X9216000Y-14045500D02*
X9296000Y-14125500D01*
X9296000Y-14045500D02*
X9216000Y-14125500D01*
X9216000Y-14474500D02*
X9296000Y-14554500D01*
X9296000Y-14474500D02*
X9216000Y-14554500D01*
X9432000Y-6545500D02*
X9512000Y-6625500D01*
X9512000Y-6545500D02*
X9432000Y-6625500D01*
X9432000Y-6974500D02*
X9512000Y-7054500D01*
X9512000Y-6974500D02*
X9432000Y-7054500D01*
X9432000Y-9045500D02*
X9512000Y-9125500D01*
X9512000Y-9045500D02*
X9432000Y-9125500D01*
X9432000Y-9474500D02*
X9512000Y-9554500D01*
X9512000Y-9474500D02*
X9432000Y-9554500D01*
X9432000Y-11545500D02*
X9512000Y-11625500D01*
X9512000Y-11545500D02*
X9432000Y-11625500D01*
X9432000Y-11974500D02*
X9512000Y-12054500D01*
X9512000Y-11974500D02*
X9432000Y-12054500D01*
X9432000Y-14045500D02*
X9512000Y-14125500D01*
X9512000Y-14045500D02*
X9432000Y-14125500D01*
X9432000Y-14474500D02*
X9512000Y-14554500D01*
X9512000Y-14474500D02*
X9432000Y-14554500D01*
X9648000Y-6545500D02*
X9728000Y-6625500D01*
X9728000Y-6545500D02*
X9648000Y-6625500D01*
X9648000Y-6974500D02*
X9728000Y-7054500D01*
X9728000Y-6974500D02*
X9648000Y-7054500D01*
X9648000Y-9045500D02*
X9728000Y-9125500D01*
X9728000Y-9045500D02*
X9648000Y-9125500D01*
X9648000Y-9474500D02*
X9728000Y-9554500D01*
X9728000Y-9474500D02*
X9648000Y-9554500D01*
X9648000Y-11545500D02*
X9728000Y-11625500D01*
X9728000Y-11545500D02*
X9648000Y-11625500D01*
X9648000Y-11974500D02*
X9728000Y-12054500D01*
X9728000Y-11974500D02*
X9648000Y-12054500D01*
X9648000Y-14045500D02*
X9728000Y-14125500D01*
X9728000Y-14045500D02*
X9648000Y-14125500D01*
X9648000Y-14474500D02*
X9728000Y-14554500D01*
X9728000Y-14474500D02*
X9648000Y-14554500D01*
X9864000Y-6545500D02*
X9944000Y-6625500D01*
X9944000Y-6545500D02*
X9864000Y-6625500D01*
X9864000Y-6974500D02*
X9944000Y-7054500D01*
X9944000Y-6974500D02*
X9864000Y-7054500D01*
X9864000Y-9045500D02*
X9944000Y-9125500D01*
X9944000Y-9045500D02*
X9864000Y-9125500D01*
X9864000Y-9474500D02*
X9944000Y-9554500D01*
X9944000Y-9474500D02*
X9864000Y-9554500D01*
X9864000Y-11545500D02*
X9944000Y-11625500D01*
X9944000Y-11545500D02*
X9864000Y-11625500D01*
X9864000Y-11974500D02*
X9944000Y-12054500D01*
X9944000Y-11974500D02*
X9864000Y-12054500D01*
X9864000Y-14045500D02*
X9944000Y-14125500D01*
X9944000Y-14045500D02*
X9864000Y-14125500D01*
X9864000Y-14474500D02*
X9944000Y-14554500D01*
X9944000Y-14474500D02*
X9864000Y-14554500D01*
X10080000Y-6545500D02*
X10160000Y-6625500D01*
X10160000Y-6545500D02*
X10080000Y-6625500D01*
X10080000Y-6974500D02*
X10160000Y-7054500D01*
X10160000Y-6974500D02*
X10080000Y-7054500D01*
X10080000Y-9045500D02*
X10160000Y-9125500D01*
X10160000Y-9045500D02*
X10080000Y-9125500D01*
X10080000Y-9474500D02*
X10160000Y-9554500D01*
X10160000Y-9474500D02*
X10080000Y-9554500D01*
X10080000Y-11545500D02*
X10160000Y-11625500D01*
X10160000Y-11545500D02*
X10080000Y-11625500D01*
X10080000Y-11974500D02*
X10160000Y-12054500D01*
X10160000Y-11974500D02*
X10080000Y-12054500D01*
X10080000Y-14045500D02*
X10160000Y-14125500D01*
X10160000Y-14045500D02*
X10080000Y-14125500D01*
X10080000Y-14474500D02*
X10160000Y-14554500D01*
X10160000Y-14474500D02*
X10080000Y-14554500D01*
X10296000Y-6545500D02*
X10376000Y-6625500D01*
X10376000Y-6545500D02*
X10296000Y-6625500D01*
X10296000Y-6974500D02*
X10376000Y-7054500D01*
X10376000Y-6974500D02*
X10296000Y-7054500D01*
X10296000Y-9045500D02*
X10376000Y-9125500D01*
X10376000Y-9045500D02*
X10296000Y-9125500D01*
X10296000Y-9474500D02*
X10376000Y-9554500D01*
X10376000Y-9474500D02*
X10296000Y-9554500D01*
X10296000Y-11545500D02*
X10376000Y-11625500D01*
X10376000Y-11545500D02*
X10296000Y-11625500D01*
X10296000Y-11974500D02*
X10376000Y-12054500D01*
X10376000Y-11974500D02*
X10296000Y-12054500D01*
X10296000Y-14045500D02*
X10376000Y-14125500D01*
X10376000Y-14045500D02*
X10296000Y-14125500D01*
X10296000Y-14474500D02*
X10376000Y-14554500D01*
X10376000Y-14474500D02*
X10296000Y-14554500D01*
X10512000Y-6545500D02*
X10592000Y-6625500D01*
X10592000Y-6545500D02*
X10512000Y-6625500D01*
X10512000Y-6974500D02*
X10592000Y-7054500D01*
X10592000Y-6974500D02*
X10512000Y-7054500D01*
X10512000Y-9045500D02*
X10592000Y-9125500D01*
X10592000Y-9045500D02*
X10512000Y-9125500D01*
X10512000Y-9474500D02*
X10592000Y-9554500D01*
X10592000Y-9474500D02*
X10512000Y-9554500D01*
X10512000Y-11545500D02*
X10592000Y-11625500D01*
X10592000Y-11545500D02*
X10512000Y-11625500D01*
X10512000Y-11974500D02*
X10592000Y-12054500D01*
X10592000Y-11974500D02*
X10512000Y-12054500D01*
X10512000Y-14045500D02*
X10592000Y-14125500D01*
X10592000Y-14045500D02*
X10512000Y-14125500D01*
X10512000Y-14474500D02*
X10592000Y-14554500D01*
X10592000Y-14474500D02*
X10512000Y-14554500D01*
X10728000Y-6545500D02*
X10808000Y-6625500D01*
X10808000Y-6545500D02*
X10728000Y-6625500D01*
X10728000Y-6974500D02*
X10808000Y-7054500D01*
X10808000Y-6974500D02*
X10728000Y-7054500D01*
X10728000Y-9045500D02*
X10808000Y-9125500D01*
X10808000Y-9045500D02*
X10728000Y-9125500D01*
X10728000Y-9474500D02*
X10808000Y-9554500D01*
X10808000Y-9474500D02*
X10728000Y-9554500D01*
X10728000Y-11545500D02*
X10808000Y-11625500D01*
X10808000Y-11545500D02*
X10728000Y-11625500D01*
X10728000Y-11974500D02*
X10808000Y-12054500D01*
X10808000Y-11974500D02*
X10728000Y-12054500D01*
X10728000Y-14045500D02*
X10808000Y-14125500D01*
X10808000Y-14045500D02*
X10728000Y-14125500D01*
X10728000Y-14474500D02*
X10808000Y-14554500D01*
X10808000Y-14474500D02*
X10728000Y-14554500D01*
X10944000Y-6545500D02*
X11024000Y-6625500D01*
X11024000Y-6545500D02*
X10944000Y-6625500D01*
X10944000Y-6974500D02*
X11024000Y-7054500D01*
X11024000Y-6974500D02*
X10944000Y-7054500D01*
X10944000Y-9045500D02*
X11024000Y-9125500D01*
X11024000Y-9045500D02*
X10944000Y-9125500D01*
X10944000Y-9474500D02*
X11024000Y-9554500D01*
X11024000Y-9474500D02*
X10944000Y-9554500D01*
X10944000Y-11545500D02*
X11024000Y-11625500D01*
X11024000Y-11545500D02*
X10944000Y-11625500D01*
X10944000Y-11974500D02*
X11024000Y-12054500D01*
X11024000Y-11974500D02*
X10944000Y-12054500D01*
X10944000Y-14045500D02*
X11024000Y-14125500D01*
X11024000Y-14045500D02*
X10944000Y-14125500D01*
X10944000Y-14474500D02*
X11024000Y-14554500D01*
X11024000Y-14474500D02*
X10944000Y-14554500D01*
X11160000Y-6545500D02*
X11240000Y-6625500D01*
X11240000Y-6545500D02*
X11160000Y-6625500D01*
X11160000Y-6974500D02*
X11240000Y-7054500D01*
X11240000Y-6974500D02*
X11160000Y-7054500D01*
X11160000Y-9045500D02*
X11240000Y-9125500D01*
X11240000Y-9045500D02*
X11160000Y-9125500D01*
X11160000Y-9474500D02*
X11240000Y-9554500D01*
X11240000Y-9474500D02*
X11160000Y-9554500D01*
X11160000Y-11545500D02*
X11240000Y-11625500D01*
X11240000Y-11545500D02*
X11160000Y-11625500D01*
X11160000Y-11974500D02*
X11240000Y-12054500D01*
X11240000Y-11974500D02*
X11160000Y-12054500D01*
X11160000Y-14045500D02*
X11240000Y-14125500D01*
X11240000Y-14045500D02*
X11160000Y-14125500D01*
X11160000Y-14474500D02*
X11240000Y-14554500D01*
X11240000Y-14474500D02*
X11160000Y-14554500D01*
X11376000Y-6545500D02*
X11456000Y-6625500D01*
X11456000Y-6545500D02*
X11376000Y-6625500D01*
X11376000Y-6974500D02*
X11456000Y-7054500D01*
X11456000Y-6974500D02*
X11376000Y-7054500D01*
X11376000Y-9045500D02*
X11456000Y-9125500D01*
X11456000Y-9045500D02*
X11376000Y-9125500D01*
X11376000Y-9474500D02*
X11456000Y-9554500D01*
X11456000Y-9474500D02*
X11376000Y-9554500D01*
X11376000Y-11545500D02*
X11456000Y-11625500D01*
X11456000Y-11545500D02*
X11376000Y-11625500D01*
X11376000Y-11974500D02*
X11456000Y-12054500D01*
X11456000Y-11974500D02*
X11376000Y-12054500D01*
X11376000Y-14045500D02*
X11456000Y-14125500D01*
X11456000Y-14045500D02*
X11376000Y-14125500D01*
X11376000Y-14474500D02*
X11456000Y-14554500D01*
X11456000Y-14474500D02*
X11376000Y-14554500D01*
X11592000Y-6545500D02*
X11672000Y-6625500D01*
X11672000Y-6545500D02*
X11592000Y-6625500D01*
X11592000Y-6974500D02*
X11672000Y-7054500D01*
X11672000Y-6974500D02*
X11592000Y-7054500D01*
X11592000Y-9045500D02*
X11672000Y-9125500D01*
X11672000Y-9045500D02*
X11592000Y-9125500D01*
X11592000Y-9474500D02*
X11672000Y-9554500D01*
X11672000Y-9474500D02*
X11592000Y-9554500D01*
X11592000Y-11545500D02*
X11672000Y-11625500D01*
X11672000Y-11545500D02*
X11592000Y-11625500D01*
X11592000Y-11974500D02*
X11672000Y-12054500D01*
X11672000Y-11974500D02*
X11592000Y-12054500D01*
X11592000Y-14045500D02*
X11672000Y-14125500D01*
X11672000Y-14045500D02*
X11592000Y-14125500D01*
X11592000Y-14474500D02*
X11672000Y-14554500D01*
X11672000Y-14474500D02*
X11592000Y-14554500D01*
X11808000Y-6545500D02*
X11888000Y-6625500D01*
X11888000Y-6545500D02*
X11808000Y-6625500D01*
X11808000Y-6974500D02*
X11888000Y-7054500D01*
X11888000Y-6974500D02*
X11808000Y-7054500D01*
X11808000Y-9045500D02*
X11888000Y-9125500D01*
X11888000Y-9045500D02*
X11808000Y-9125500D01*
X11808000Y-9474500D02*
X11888000Y-9554500D01*
X11888000Y-9474500D02*
X11808000Y-9554500D01*
X11808000Y-11545500D02*
X11888000Y-11625500D01*
X11888000Y-11545500D02*
X11808000Y-11625500D01*
X11808000Y-11974500D02*
X11888000Y-12054500D01*
X11888000Y-11974500D02*
X11808000Y-12054500D01*
X11808000Y-14045500D02*
X11888000Y-14125500D01*
X11888000Y-14045500D02*
X11808000Y-14125500D01*
X11808000Y-14474500D02*
X11888000Y-14554500D01*
X11888000Y-14474500D02*
X11808000Y-14554500D01*
X12024000Y-6545500D02*
X12104000Y-6625500D01*
X12104000Y-6545500D02*
X12024000Y-6625500D01*
X12024000Y-6974500D02*
X12104000Y-7054500D01*
X12104000Y-6974500D02*
X12024000Y-7054500D01*
X12024000Y-9045500D02*
X12104000Y-9125500D01*
X12104000Y-9045500D02*
X12024000Y-9125500D01*
X12024000Y-9474500D02*
X12104000Y-9554500D01*
X12104000Y-9474500D02*
X12024000Y-9554500D01*
X12024000Y-11545500D02*
X12104000Y-11625500D01*
X12104000Y-11545500D02*
X12024000Y-11625500D01*
X12024000Y-11974500D02*
X12104000Y-12054500D01*
X12104000Y-11974500D02*
X12024000Y-12054500D01*
X12024000Y-14045500D02*
X12104000Y-14125500D01*
X12104000Y-14045500D02*
X12024000Y-14125500D01*
X12024000Y-14474500D02*
X12104000Y-14554500D01*
X12104000Y-14474500D02*
X12024000Y-14554500D01*
X12240000Y-6545500D02*
X12320000Y-6625500D01*
X12320000Y-6545500D02*
X12240000Y-6625500D01*
X12240000Y-6974500D02*
X12320000Y-7054500D01*
X12320000Y-6974500D02*
X12240000Y-7054500D01*
X12240000Y-9045500D02*
X12320000Y-9125500D01*
X12320000Y-9045500D02*
X12240000Y-9125500D01*
X12240000Y-9474500D02*
X12320000Y-9554500D01*
X12320000Y-9474500D02*
X12240000Y-9554500D01*
X12240000Y-11545500D02*
X12320000Y-11625500D01*
X12320000Y-11545500D02*
X12240000Y-11625500D01*
X12240000Y-11974500D02*
X12320000Y-12054500D01*
X12320000Y-11974500D02*
X12240000Y-12054500D01*
X12240000Y-14045500D02*
X12320000Y-14125500D01*
X12320000Y-14045500D02*
X12240000Y-14125500D01*
X12240000Y-14474500D02*
X12320000Y-14554500D01*
X12320000Y-14474500D02*
X12240000Y-14554500D01*
X12456000Y-6545500D02*
X12536000Y-6625500D01*
X12536000Y-6545500D02*
X12456000Y-6625500D01*
X12456000Y-6974500D02*
X12536000Y-7054500D01*
X12536000Y-6974500D02*
X12456000Y-7054500D01*
X12456000Y-9045500D02*
X12536000Y-9125500D01*
X12536000Y-9045500D02*
X12456000Y-9125500D01*
X12456000Y-9474500D02*
X12536000Y-9554500D01*
X12536000Y-9474500D02*
X12456000Y-9554500D01*
X12456000Y-11545500D02*
X12536000Y-11625500D01*
X12536000Y-11545500D02*
X12456000Y-11625500D01*
X12456000Y-11974500D02*
X12536000Y-12054500D01*
X12536000Y-11974500D02*
X12456000Y-12054500D01*
X12456000Y-14045500D02*
X12536000Y-14125500D01*
X12536000Y-14045500D02*
X12456000Y-14125500D01*
X12456000Y-14474500D02*
X12536000Y-14554500D01*
X12536000Y-14474500D02*
X12456000Y-14554500D01*
X12672000Y-6545500D02*
X12752000Y-6625500D01*
X12752000Y-6545500D02*
X12672000Y-6625500D01*
X12672000Y-6974500D02*
X12752000Y-7054500D01*
X12752000Y-6974500D02*
X12672000Y-7054500D01*
X12672000Y-9045500D02*
X12752000Y-9125500D01*
X12752000Y-9045500D02*
X12672000Y-9125500D01*
X12672000Y-9474500D02*
X12752000Y-9554500D01*
X12752000Y-9474500D02*
X12672000Y-9554500D01*
X12672000Y-11545500D02*
X12752000Y-11625500D01*
X12752000Y-11545500D02*
X12672000Y-11625500D01*
X12672000Y-11974500D02*
X12752000Y-12054500D01*
X12752000Y-11974500D02*
X12672000Y-12054500D01*
X12672000Y-14045500D02*
X12752000Y-14125500D01*
X12752000Y-14045500D02*
X12672000Y-14125500D01*
X12672000Y-14474500D02*
X12752000Y-14554500D01*
X12752000Y-14474500D02*
X12672000Y-14554500D01*
D12*
X3803928Y-17768214D02*
X3803928Y-17468214D01*
X3875357Y-17468214D01*
X3918214Y-17482500D01*
X3946786Y-17511072D01*
X3961071Y-17539643D01*
X3975357Y-17596786D01*
X3975357Y-17639643D01*
X3961071Y-17696786D01*
X3946786Y-17725357D01*
X3918214Y-17753929D01*
X3875357Y-17768214D01*
X3803928Y-17768214D01*
X4103928Y-17768214D02*
X4103928Y-17568214D01*
X4103928Y-17625357D02*
X4118214Y-17596786D01*
X4132500Y-17582500D01*
X4161071Y-17568214D01*
X4189643Y-17568214D01*
X4289643Y-17768214D02*
X4289643Y-17568214D01*
X4289643Y-17468214D02*
X4275357Y-17482500D01*
X4289643Y-17496786D01*
X4303928Y-17482500D01*
X4289643Y-17468214D01*
X4289643Y-17496786D01*
X4475357Y-17768214D02*
X4446786Y-17753929D01*
X4432500Y-17725357D01*
X4432500Y-17468214D01*
X4632500Y-17768214D02*
X4603928Y-17753929D01*
X4589643Y-17725357D01*
X4589643Y-17468214D01*
X4975357Y-17768214D02*
X4975357Y-17468214D01*
X5075357Y-17682500D01*
X5175357Y-17468214D01*
X5175357Y-17768214D01*
X5446786Y-17768214D02*
X5446786Y-17611072D01*
X5432500Y-17582500D01*
X5403928Y-17568214D01*
X5346786Y-17568214D01*
X5318214Y-17582500D01*
X5446786Y-17753929D02*
X5418214Y-17768214D01*
X5346786Y-17768214D01*
X5318214Y-17753929D01*
X5303928Y-17725357D01*
X5303928Y-17696786D01*
X5318214Y-17668214D01*
X5346786Y-17653929D01*
X5418214Y-17653929D01*
X5446786Y-17639643D01*
X5589643Y-17568214D02*
X5589643Y-17868214D01*
X5589643Y-17582500D02*
X5618214Y-17568214D01*
X5675357Y-17568214D01*
X5703928Y-17582500D01*
X5718214Y-17596786D01*
X5732500Y-17625357D01*
X5732500Y-17711072D01*
X5718214Y-17739643D01*
X5703928Y-17753929D01*
X5675357Y-17768214D01*
X5618214Y-17768214D01*
X5589643Y-17753929D01*
X5861071Y-17739643D02*
X5875357Y-17753929D01*
X5861071Y-17768214D01*
X5846786Y-17753929D01*
X5861071Y-17739643D01*
X5861071Y-17768214D01*
X5861071Y-17582500D02*
X5875357Y-17596786D01*
X5861071Y-17611072D01*
X5846786Y-17596786D01*
X5861071Y-17582500D01*
X5861071Y-17611072D01*
X3437500Y-18222500D02*
X3517500Y-18302500D01*
X3517500Y-18222500D02*
X3437500Y-18302500D01*
X3861071Y-18098214D02*
X3889643Y-18098214D01*
X3918214Y-18112500D01*
X3932500Y-18126786D01*
X3946786Y-18155357D01*
X3961071Y-18212500D01*
X3961071Y-18283929D01*
X3946786Y-18341072D01*
X3932500Y-18369643D01*
X3918214Y-18383929D01*
X3889643Y-18398214D01*
X3861071Y-18398214D01*
X3832500Y-18383929D01*
X3818214Y-18369643D01*
X3803928Y-18341072D01*
X3789643Y-18283929D01*
X3789643Y-18212500D01*
X3803928Y-18155357D01*
X3818214Y-18126786D01*
X3832500Y-18112500D01*
X3861071Y-18098214D01*
X4089643Y-18369643D02*
X4103928Y-18383929D01*
X4089643Y-18398214D01*
X4075357Y-18383929D01*
X4089643Y-18369643D01*
X4089643Y-18398214D01*
X4275357Y-18226786D02*
X4246786Y-18212500D01*
X4232500Y-18198214D01*
X4218214Y-18169643D01*
X4218214Y-18155357D01*
X4232500Y-18126786D01*
X4246786Y-18112500D01*
X4275357Y-18098214D01*
X4332500Y-18098214D01*
X4361071Y-18112500D01*
X4375357Y-18126786D01*
X4389643Y-18155357D01*
X4389643Y-18169643D01*
X4375357Y-18198214D01*
X4361071Y-18212500D01*
X4332500Y-18226786D01*
X4275357Y-18226786D01*
X4246786Y-18241072D01*
X4232500Y-18255357D01*
X4218214Y-18283929D01*
X4218214Y-18341072D01*
X4232500Y-18369643D01*
X4246786Y-18383929D01*
X4275357Y-18398214D01*
X4332500Y-18398214D01*
X4361071Y-18383929D01*
X4375357Y-18369643D01*
X4389643Y-18341072D01*
X4389643Y-18283929D01*
X4375357Y-18255357D01*
X4361071Y-18241072D01*
X4332500Y-18226786D01*
X4575357Y-18098214D02*
X4603928Y-18098214D01*
X4632500Y-18112500D01*
X4646786Y-18126786D01*
X4661071Y-18155357D01*
X4675357Y-18212500D01*
X4675357Y-18283929D01*
X4661071Y-18341072D01*
X4646786Y-18369643D01*
X4632500Y-18383929D01*
X4603928Y-18398214D01*
X4575357Y-18398214D01*
X4546786Y-18383929D01*
X4532500Y-18369643D01*
X4518214Y-18341072D01*
X4503928Y-18283929D01*
X4503928Y-18212500D01*
X4518214Y-18155357D01*
X4532500Y-18126786D01*
X4546786Y-18112500D01*
X4575357Y-18098214D01*
X4861071Y-18098214D02*
X4889643Y-18098214D01*
X4918214Y-18112500D01*
X4932500Y-18126786D01*
X4946786Y-18155357D01*
X4961071Y-18212500D01*
X4961071Y-18283929D01*
X4946786Y-18341072D01*
X4932500Y-18369643D01*
X4918214Y-18383929D01*
X4889643Y-18398214D01*
X4861071Y-18398214D01*
X4832500Y-18383929D01*
X4818214Y-18369643D01*
X4803928Y-18341072D01*
X4789643Y-18283929D01*
X4789643Y-18212500D01*
X4803928Y-18155357D01*
X4818214Y-18126786D01*
X4832500Y-18112500D01*
X4861071Y-18098214D01*
X5089643Y-18398214D02*
X5089643Y-18198214D01*
X5089643Y-18226786D02*
X5103928Y-18212500D01*
X5132500Y-18198214D01*
X5175357Y-18198214D01*
X5203928Y-18212500D01*
X5218214Y-18241072D01*
X5218214Y-18398214D01*
X5218214Y-18241072D02*
X5232500Y-18212500D01*
X5261071Y-18198214D01*
X5303928Y-18198214D01*
X5332500Y-18212500D01*
X5346786Y-18241072D01*
X5346786Y-18398214D01*
X5489643Y-18398214D02*
X5489643Y-18198214D01*
X5489643Y-18226786D02*
X5503928Y-18212500D01*
X5532500Y-18198214D01*
X5575357Y-18198214D01*
X5603928Y-18212500D01*
X5618214Y-18241072D01*
X5618214Y-18398214D01*
X5618214Y-18241072D02*
X5632500Y-18212500D01*
X5661071Y-18198214D01*
X5703928Y-18198214D01*
X5732500Y-18212500D01*
X5746786Y-18241072D01*
X5746786Y-18398214D01*
X6332500Y-18083929D02*
X6075357Y-18469643D01*
X6718214Y-18098214D02*
X6746786Y-18098214D01*
X6775357Y-18112500D01*
X6789643Y-18126786D01*
X6803928Y-18155357D01*
X6818214Y-18212500D01*
X6818214Y-18283929D01*
X6803928Y-18341072D01*
X6789643Y-18369643D01*
X6775357Y-18383929D01*
X6746786Y-18398214D01*
X6718214Y-18398214D01*
X6689643Y-18383929D01*
X6675357Y-18369643D01*
X6661071Y-18341072D01*
X6646786Y-18283929D01*
X6646786Y-18212500D01*
X6661071Y-18155357D01*
X6675357Y-18126786D01*
X6689643Y-18112500D01*
X6718214Y-18098214D01*
X6946786Y-18369643D02*
X6961071Y-18383929D01*
X6946786Y-18398214D01*
X6932500Y-18383929D01*
X6946786Y-18369643D01*
X6946786Y-18398214D01*
X7146786Y-18098214D02*
X7175357Y-18098214D01*
X7203928Y-18112500D01*
X7218214Y-18126786D01*
X7232500Y-18155357D01*
X7246786Y-18212500D01*
X7246786Y-18283929D01*
X7232500Y-18341072D01*
X7218214Y-18369643D01*
X7203928Y-18383929D01*
X7175357Y-18398214D01*
X7146786Y-18398214D01*
X7118214Y-18383929D01*
X7103928Y-18369643D01*
X7089643Y-18341072D01*
X7075357Y-18283929D01*
X7075357Y-18212500D01*
X7089643Y-18155357D01*
X7103928Y-18126786D01*
X7118214Y-18112500D01*
X7146786Y-18098214D01*
X7346786Y-18098214D02*
X7532500Y-18098214D01*
X7432500Y-18212500D01*
X7475357Y-18212500D01*
X7503928Y-18226786D01*
X7518214Y-18241072D01*
X7532500Y-18269643D01*
X7532500Y-18341072D01*
X7518214Y-18369643D01*
X7503928Y-18383929D01*
X7475357Y-18398214D01*
X7389643Y-18398214D01*
X7361071Y-18383929D01*
X7346786Y-18369643D01*
X7818214Y-18398214D02*
X7646786Y-18398214D01*
X7732500Y-18398214D02*
X7732500Y-18098214D01*
X7703928Y-18141072D01*
X7675357Y-18169643D01*
X7646786Y-18183929D01*
X8089643Y-18098214D02*
X7946786Y-18098214D01*
X7932500Y-18241072D01*
X7946786Y-18226786D01*
X7975357Y-18212500D01*
X8046786Y-18212500D01*
X8075357Y-18226786D01*
X8089643Y-18241072D01*
X8103928Y-18269643D01*
X8103928Y-18341072D01*
X8089643Y-18369643D01*
X8075357Y-18383929D01*
X8046786Y-18398214D01*
X7975357Y-18398214D01*
X7946786Y-18383929D01*
X7932500Y-18369643D01*
X8218214Y-18098214D02*
X8218214Y-18155357D01*
X8332500Y-18098214D02*
X8332500Y-18155357D01*
X8775357Y-18512500D02*
X8761071Y-18498214D01*
X8732500Y-18455357D01*
X8718214Y-18426786D01*
X8703928Y-18383929D01*
X8689643Y-18312500D01*
X8689643Y-18255357D01*
X8703928Y-18183929D01*
X8718214Y-18141072D01*
X8732500Y-18112500D01*
X8761071Y-18069643D01*
X8775357Y-18055357D01*
X8875357Y-18126786D02*
X8889643Y-18112500D01*
X8918214Y-18098214D01*
X8989643Y-18098214D01*
X9018214Y-18112500D01*
X9032500Y-18126786D01*
X9046786Y-18155357D01*
X9046786Y-18183929D01*
X9032500Y-18226786D01*
X8861071Y-18398214D01*
X9046786Y-18398214D01*
X9232500Y-18098214D02*
X9261071Y-18098214D01*
X9289643Y-18112500D01*
X9303928Y-18126786D01*
X9318214Y-18155357D01*
X9332500Y-18212500D01*
X9332500Y-18283929D01*
X9318214Y-18341072D01*
X9303928Y-18369643D01*
X9289643Y-18383929D01*
X9261071Y-18398214D01*
X9232500Y-18398214D01*
X9203928Y-18383929D01*
X9189643Y-18369643D01*
X9175357Y-18341072D01*
X9161071Y-18283929D01*
X9161071Y-18212500D01*
X9175357Y-18155357D01*
X9189643Y-18126786D01*
X9203928Y-18112500D01*
X9232500Y-18098214D01*
X9518214Y-18098214D02*
X9546786Y-18098214D01*
X9575357Y-18112500D01*
X9589643Y-18126786D01*
X9603928Y-18155357D01*
X9618214Y-18212500D01*
X9618214Y-18283929D01*
X9603928Y-18341072D01*
X9589643Y-18369643D01*
X9575357Y-18383929D01*
X9546786Y-18398214D01*
X9518214Y-18398214D01*
X9489643Y-18383929D01*
X9475357Y-18369643D01*
X9461071Y-18341072D01*
X9446786Y-18283929D01*
X9446786Y-18212500D01*
X9461071Y-18155357D01*
X9475357Y-18126786D01*
X9489643Y-18112500D01*
X9518214Y-18098214D01*
X9975357Y-18398214D02*
X9975357Y-18098214D01*
X10103928Y-18398214D02*
X10103928Y-18241072D01*
X10089643Y-18212500D01*
X10061071Y-18198214D01*
X10018214Y-18198214D01*
X9989643Y-18212500D01*
X9975357Y-18226786D01*
X10289643Y-18398214D02*
X10261071Y-18383929D01*
X10246786Y-18369643D01*
X10232500Y-18341072D01*
X10232500Y-18255357D01*
X10246786Y-18226786D01*
X10261071Y-18212500D01*
X10289643Y-18198214D01*
X10332500Y-18198214D01*
X10361071Y-18212500D01*
X10375357Y-18226786D01*
X10389643Y-18255357D01*
X10389643Y-18341072D01*
X10375357Y-18369643D01*
X10361071Y-18383929D01*
X10332500Y-18398214D01*
X10289643Y-18398214D01*
X10561071Y-18398214D02*
X10532500Y-18383929D01*
X10518214Y-18355357D01*
X10518214Y-18098214D01*
X10789643Y-18383929D02*
X10761071Y-18398214D01*
X10703928Y-18398214D01*
X10675357Y-18383929D01*
X10661071Y-18355357D01*
X10661071Y-18241072D01*
X10675357Y-18212500D01*
X10703928Y-18198214D01*
X10761071Y-18198214D01*
X10789643Y-18212500D01*
X10803928Y-18241072D01*
X10803928Y-18269643D01*
X10661071Y-18298214D01*
X10918214Y-18383929D02*
X10946786Y-18398214D01*
X11003928Y-18398214D01*
X11032500Y-18383929D01*
X11046786Y-18355357D01*
X11046786Y-18341072D01*
X11032500Y-18312500D01*
X11003928Y-18298214D01*
X10961071Y-18298214D01*
X10932500Y-18283929D01*
X10918214Y-18255357D01*
X10918214Y-18241072D01*
X10932500Y-18212500D01*
X10961071Y-18198214D01*
X11003928Y-18198214D01*
X11032500Y-18212500D01*
X11146786Y-18512500D02*
X11161071Y-18498214D01*
X11189643Y-18455357D01*
X11203928Y-18426786D01*
X11218214Y-18383929D01*
X11232500Y-18312500D01*
X11232500Y-18255357D01*
X11218214Y-18183929D01*
X11203928Y-18141072D01*
X11189643Y-18112500D01*
X11161071Y-18069643D01*
X11146786Y-18055357D01*
M02*
