M48
; DRILL file {KiCad (5.1.10-1-10_14)} date Wednesday, March 30, 2022 at 11:01:12 AM
; FORMAT={-:-/ absolute / metric / decimal}
; #@! TF.CreationDate,2022-03-30T11:01:12+01:00
; #@! TF.GenerationSoftware,Kicad,Pcbnew,(5.1.10-1-10_14)
; #@! TF.FileFunction,Plated,1,2,PTH
FMAT,2
METRIC
T1C0.800
%
G90
G05
T1
X75.28Y-65.855
X75.28Y-70.145
X75.28Y-90.855
X75.28Y-95.145
X75.28Y-115.855
X75.28Y-120.145
X75.28Y-140.855
X75.28Y-145.145
X77.44Y-65.855
X77.44Y-70.145
X77.44Y-90.855
X77.44Y-95.145
X77.44Y-115.855
X77.44Y-120.145
X77.44Y-140.855
X77.44Y-145.145
X79.6Y-65.855
X79.6Y-70.145
X79.6Y-90.855
X79.6Y-95.145
X79.6Y-115.855
X79.6Y-120.145
X79.6Y-140.855
X79.6Y-145.145
X81.76Y-65.855
X81.76Y-70.145
X81.76Y-90.855
X81.76Y-95.145
X81.76Y-115.855
X81.76Y-120.145
X81.76Y-140.855
X81.76Y-145.145
X83.92Y-65.855
X83.92Y-70.145
X83.92Y-90.855
X83.92Y-95.145
X83.92Y-115.855
X83.92Y-120.145
X83.92Y-140.855
X83.92Y-145.145
X86.08Y-65.855
X86.08Y-70.145
X86.08Y-90.855
X86.08Y-95.145
X86.08Y-115.855
X86.08Y-120.145
X86.08Y-140.855
X86.08Y-145.145
X88.24Y-65.855
X88.24Y-70.145
X88.24Y-90.855
X88.24Y-95.145
X88.24Y-115.855
X88.24Y-120.145
X88.24Y-140.855
X88.24Y-145.145
X90.4Y-65.855
X90.4Y-70.145
X90.4Y-90.855
X90.4Y-95.145
X90.4Y-115.855
X90.4Y-120.145
X90.4Y-140.855
X90.4Y-145.145
X92.56Y-65.855
X92.56Y-70.145
X92.56Y-90.855
X92.56Y-95.145
X92.56Y-115.855
X92.56Y-120.145
X92.56Y-140.855
X92.56Y-145.145
X94.72Y-65.855
X94.72Y-70.145
X94.72Y-90.855
X94.72Y-95.145
X94.72Y-115.855
X94.72Y-120.145
X94.72Y-140.855
X94.72Y-145.145
X96.88Y-65.855
X96.88Y-70.145
X96.88Y-90.855
X96.88Y-95.145
X96.88Y-115.855
X96.88Y-120.145
X96.88Y-140.855
X96.88Y-145.145
X99.04Y-65.855
X99.04Y-70.145
X99.04Y-90.855
X99.04Y-95.145
X99.04Y-115.855
X99.04Y-120.145
X99.04Y-140.855
X99.04Y-145.145
X101.2Y-65.855
X101.2Y-70.145
X101.2Y-90.855
X101.2Y-95.145
X101.2Y-115.855
X101.2Y-120.145
X101.2Y-140.855
X101.2Y-145.145
X103.36Y-65.855
X103.36Y-70.145
X103.36Y-90.855
X103.36Y-95.145
X103.36Y-115.855
X103.36Y-120.145
X103.36Y-140.855
X103.36Y-145.145
X105.52Y-65.855
X105.52Y-70.145
X105.52Y-90.855
X105.52Y-95.145
X105.52Y-115.855
X105.52Y-120.145
X105.52Y-140.855
X105.52Y-145.145
X107.68Y-65.855
X107.68Y-70.145
X107.68Y-90.855
X107.68Y-95.145
X107.68Y-115.855
X107.68Y-120.145
X107.68Y-140.855
X107.68Y-145.145
X109.84Y-65.855
X109.84Y-70.145
X109.84Y-90.855
X109.84Y-95.145
X109.84Y-115.855
X109.84Y-120.145
X109.84Y-140.855
X109.84Y-145.145
X112.0Y-65.855
X112.0Y-70.145
X112.0Y-90.855
X112.0Y-95.145
X112.0Y-115.855
X112.0Y-120.145
X112.0Y-140.855
X112.0Y-145.145
X114.16Y-65.855
X114.16Y-70.145
X114.16Y-90.855
X114.16Y-95.145
X114.16Y-115.855
X114.16Y-120.145
X114.16Y-140.855
X114.16Y-145.145
X116.32Y-65.855
X116.32Y-70.145
X116.32Y-90.855
X116.32Y-95.145
X116.32Y-115.855
X116.32Y-120.145
X116.32Y-140.855
X116.32Y-145.145
X118.48Y-65.855
X118.48Y-70.145
X118.48Y-90.855
X118.48Y-95.145
X118.48Y-115.855
X118.48Y-120.145
X118.48Y-140.855
X118.48Y-145.145
X120.64Y-65.855
X120.64Y-70.145
X120.64Y-90.855
X120.64Y-95.145
X120.64Y-115.855
X120.64Y-120.145
X120.64Y-140.855
X120.64Y-145.145
X122.8Y-65.855
X122.8Y-70.145
X122.8Y-90.855
X122.8Y-95.145
X122.8Y-115.855
X122.8Y-120.145
X122.8Y-140.855
X122.8Y-145.145
X124.96Y-65.855
X124.96Y-70.145
X124.96Y-90.855
X124.96Y-95.145
X124.96Y-115.855
X124.96Y-120.145
X124.96Y-140.855
X124.96Y-145.145
X127.12Y-65.855
X127.12Y-70.145
X127.12Y-90.855
X127.12Y-95.145
X127.12Y-115.855
X127.12Y-120.145
X127.12Y-140.855
X127.12Y-145.145
T0
M30
