G04 #@! TF.GenerationSoftware,KiCad,Pcbnew,(5.1.10-1-10_14)*
G04 #@! TF.CreationDate,2022-03-30T11:00:48+01:00*
G04 #@! TF.ProjectId,RJ21_DSLAM_ADAPTER,524a3231-5f44-4534-9c41-4d5f41444150,rev?*
G04 #@! TF.SameCoordinates,Original*
G04 #@! TF.FileFunction,Copper,L1,Top*
G04 #@! TF.FilePolarity,Positive*
%FSLAX46Y46*%
G04 Gerber Fmt 4.6, Leading zero omitted, Abs format (unit mm)*
G04 Created by KiCad (PCBNEW (5.1.10-1-10_14)) date 2022-03-30 11:00:48*
%MOMM*%
%LPD*%
G01*
G04 APERTURE LIST*
G04 #@! TA.AperFunction,ComponentPad*
%ADD10C,1.500000*%
G04 #@! TD*
G04 #@! TA.AperFunction,Conductor*
%ADD11C,0.250000*%
G04 #@! TD*
G04 APERTURE END LIST*
D10*
X75280000Y-65855000D03*
X77440000Y-65855000D03*
X79600000Y-65855000D03*
X81760000Y-65855000D03*
X83920000Y-65855000D03*
X86080000Y-65855000D03*
X88240000Y-65855000D03*
X90400000Y-65855000D03*
X92560000Y-65855000D03*
X94720000Y-65855000D03*
X96880000Y-65855000D03*
X99040000Y-65855000D03*
X101200000Y-65855000D03*
X103360000Y-65855000D03*
X105520000Y-65855000D03*
X107680000Y-65855000D03*
X109840000Y-65855000D03*
X112000000Y-65855000D03*
X114160000Y-65855000D03*
X116320000Y-65855000D03*
X118480000Y-65855000D03*
X120640000Y-65855000D03*
X122800000Y-65855000D03*
X124960000Y-65855000D03*
X127120000Y-65855000D03*
X75280000Y-70145000D03*
X77440000Y-70145000D03*
X79600000Y-70145000D03*
X81760000Y-70145000D03*
X83920000Y-70145000D03*
X86080000Y-70145000D03*
X88240000Y-70145000D03*
X90400000Y-70145000D03*
X92560000Y-70145000D03*
X94720000Y-70145000D03*
X96880000Y-70145000D03*
X99040000Y-70145000D03*
X101200000Y-70145000D03*
X103360000Y-70145000D03*
X105520000Y-70145000D03*
X107680000Y-70145000D03*
X109840000Y-70145000D03*
X112000000Y-70145000D03*
X114160000Y-70145000D03*
X116320000Y-70145000D03*
X118480000Y-70145000D03*
X120640000Y-70145000D03*
X122800000Y-70145000D03*
X124960000Y-70145000D03*
X127120000Y-70145000D03*
X127120000Y-95145000D03*
X124960000Y-95145000D03*
X122800000Y-95145000D03*
X120640000Y-95145000D03*
X118480000Y-95145000D03*
X116320000Y-95145000D03*
X114160000Y-95145000D03*
X112000000Y-95145000D03*
X109840000Y-95145000D03*
X107680000Y-95145000D03*
X105520000Y-95145000D03*
X103360000Y-95145000D03*
X101200000Y-95145000D03*
X99040000Y-95145000D03*
X96880000Y-95145000D03*
X94720000Y-95145000D03*
X92560000Y-95145000D03*
X90400000Y-95145000D03*
X88240000Y-95145000D03*
X86080000Y-95145000D03*
X83920000Y-95145000D03*
X81760000Y-95145000D03*
X79600000Y-95145000D03*
X77440000Y-95145000D03*
X75280000Y-95145000D03*
X127120000Y-90855000D03*
X124960000Y-90855000D03*
X122800000Y-90855000D03*
X120640000Y-90855000D03*
X118480000Y-90855000D03*
X116320000Y-90855000D03*
X114160000Y-90855000D03*
X112000000Y-90855000D03*
X109840000Y-90855000D03*
X107680000Y-90855000D03*
X105520000Y-90855000D03*
X103360000Y-90855000D03*
X101200000Y-90855000D03*
X99040000Y-90855000D03*
X96880000Y-90855000D03*
X94720000Y-90855000D03*
X92560000Y-90855000D03*
X90400000Y-90855000D03*
X88240000Y-90855000D03*
X86080000Y-90855000D03*
X83920000Y-90855000D03*
X81760000Y-90855000D03*
X79600000Y-90855000D03*
X77440000Y-90855000D03*
X75280000Y-90855000D03*
X75280000Y-115855000D03*
X77440000Y-115855000D03*
X79600000Y-115855000D03*
X81760000Y-115855000D03*
X83920000Y-115855000D03*
X86080000Y-115855000D03*
X88240000Y-115855000D03*
X90400000Y-115855000D03*
X92560000Y-115855000D03*
X94720000Y-115855000D03*
X96880000Y-115855000D03*
X99040000Y-115855000D03*
X101200000Y-115855000D03*
X103360000Y-115855000D03*
X105520000Y-115855000D03*
X107680000Y-115855000D03*
X109840000Y-115855000D03*
X112000000Y-115855000D03*
X114160000Y-115855000D03*
X116320000Y-115855000D03*
X118480000Y-115855000D03*
X120640000Y-115855000D03*
X122800000Y-115855000D03*
X124960000Y-115855000D03*
X127120000Y-115855000D03*
X75280000Y-120145000D03*
X77440000Y-120145000D03*
X79600000Y-120145000D03*
X81760000Y-120145000D03*
X83920000Y-120145000D03*
X86080000Y-120145000D03*
X88240000Y-120145000D03*
X90400000Y-120145000D03*
X92560000Y-120145000D03*
X94720000Y-120145000D03*
X96880000Y-120145000D03*
X99040000Y-120145000D03*
X101200000Y-120145000D03*
X103360000Y-120145000D03*
X105520000Y-120145000D03*
X107680000Y-120145000D03*
X109840000Y-120145000D03*
X112000000Y-120145000D03*
X114160000Y-120145000D03*
X116320000Y-120145000D03*
X118480000Y-120145000D03*
X120640000Y-120145000D03*
X122800000Y-120145000D03*
X124960000Y-120145000D03*
X127120000Y-120145000D03*
X127120000Y-145145000D03*
X124960000Y-145145000D03*
X122800000Y-145145000D03*
X120640000Y-145145000D03*
X118480000Y-145145000D03*
X116320000Y-145145000D03*
X114160000Y-145145000D03*
X112000000Y-145145000D03*
X109840000Y-145145000D03*
X107680000Y-145145000D03*
X105520000Y-145145000D03*
X103360000Y-145145000D03*
X101200000Y-145145000D03*
X99040000Y-145145000D03*
X96880000Y-145145000D03*
X94720000Y-145145000D03*
X92560000Y-145145000D03*
X90400000Y-145145000D03*
X88240000Y-145145000D03*
X86080000Y-145145000D03*
X83920000Y-145145000D03*
X81760000Y-145145000D03*
X79600000Y-145145000D03*
X77440000Y-145145000D03*
X75280000Y-145145000D03*
X127120000Y-140855000D03*
X124960000Y-140855000D03*
X122800000Y-140855000D03*
X120640000Y-140855000D03*
X118480000Y-140855000D03*
X116320000Y-140855000D03*
X114160000Y-140855000D03*
X112000000Y-140855000D03*
X109840000Y-140855000D03*
X107680000Y-140855000D03*
X105520000Y-140855000D03*
X103360000Y-140855000D03*
X101200000Y-140855000D03*
X99040000Y-140855000D03*
X96880000Y-140855000D03*
X94720000Y-140855000D03*
X92560000Y-140855000D03*
X90400000Y-140855000D03*
X88240000Y-140855000D03*
X86080000Y-140855000D03*
X83920000Y-140855000D03*
X81760000Y-140855000D03*
X79600000Y-140855000D03*
X77440000Y-140855000D03*
X75280000Y-140855000D03*
D11*
X76355001Y-94069999D02*
X75280000Y-95145000D01*
X76355001Y-66930001D02*
X76355001Y-94069999D01*
X75280000Y-65855000D02*
X76355001Y-66930001D01*
X78515001Y-66930001D02*
X78515001Y-94069999D01*
X78515001Y-94069999D02*
X77440000Y-95145000D01*
X77440000Y-65855000D02*
X78515001Y-66930001D01*
X80675001Y-94069999D02*
X79600000Y-95145000D01*
X80675001Y-66930001D02*
X80675001Y-94069999D01*
X79600000Y-65855000D02*
X80675001Y-66930001D01*
X82835001Y-94069999D02*
X81760000Y-95145000D01*
X82835001Y-66930001D02*
X82835001Y-94069999D01*
X81760000Y-65855000D02*
X82835001Y-66930001D01*
X84995001Y-94069999D02*
X83920000Y-95145000D01*
X84995001Y-66930001D02*
X84995001Y-94069999D01*
X83920000Y-65855000D02*
X84995001Y-66930001D01*
X87155001Y-94069999D02*
X86080000Y-95145000D01*
X87155001Y-66930001D02*
X87155001Y-94069999D01*
X86080000Y-65855000D02*
X87155001Y-66930001D01*
X89315001Y-94069999D02*
X88240000Y-95145000D01*
X89315001Y-66930001D02*
X89315001Y-94069999D01*
X88240000Y-65855000D02*
X89315001Y-66930001D01*
X91475001Y-66930001D02*
X91475001Y-94069999D01*
X91475001Y-94069999D02*
X90400000Y-95145000D01*
X90400000Y-65855000D02*
X91475001Y-66930001D01*
X93635001Y-94069999D02*
X92560000Y-95145000D01*
X93635001Y-66930001D02*
X93635001Y-94069999D01*
X92560000Y-65855000D02*
X93635001Y-66930001D01*
X95795001Y-94069999D02*
X94720000Y-95145000D01*
X95795001Y-66930001D02*
X95795001Y-94069999D01*
X94720000Y-65855000D02*
X95795001Y-66930001D01*
X97955001Y-94069999D02*
X96880000Y-95145000D01*
X97955001Y-66930001D02*
X97955001Y-94069999D01*
X96880000Y-65855000D02*
X97955001Y-66930001D01*
X99040000Y-65855000D02*
X100115001Y-66930001D01*
X99040000Y-94084340D02*
X99040000Y-95145000D01*
X100115001Y-66930001D02*
X100115001Y-93009339D01*
X100115001Y-93009339D02*
X99040000Y-94084340D01*
X75280000Y-70145000D02*
X75280000Y-90855000D01*
X77440000Y-70145000D02*
X77440000Y-90855000D01*
X79600000Y-70145000D02*
X79600000Y-90855000D01*
X81760000Y-70145000D02*
X81760000Y-90855000D01*
X83920000Y-70145000D02*
X83920000Y-90855000D01*
X86080000Y-70145000D02*
X86080000Y-90855000D01*
X88240000Y-70145000D02*
X88240000Y-90855000D01*
X90400000Y-70145000D02*
X90400000Y-90855000D01*
X92560000Y-70145000D02*
X92560000Y-90855000D01*
X94720000Y-70145000D02*
X94720000Y-90855000D01*
X96880000Y-70145000D02*
X96880000Y-90855000D01*
X99040000Y-70145000D02*
X99040000Y-90855000D01*
X101200000Y-70145000D02*
X102275001Y-71220001D01*
X75280000Y-114794340D02*
X75280000Y-115855000D01*
X102275001Y-71220001D02*
X102275001Y-95593589D01*
X102275001Y-95593589D02*
X101648589Y-96220001D01*
X101648589Y-96220001D02*
X93854339Y-96220001D01*
X93854339Y-96220001D02*
X75280000Y-114794340D01*
X77440000Y-115787587D02*
X77440000Y-115855000D01*
X104435001Y-71220001D02*
X104435001Y-95628588D01*
X103360000Y-70145000D02*
X104435001Y-71220001D01*
X96107565Y-97120022D02*
X77440000Y-115787587D01*
X104435001Y-95628588D02*
X102943567Y-97120022D01*
X102943567Y-97120022D02*
X96107565Y-97120022D01*
X104235959Y-98020043D02*
X96743546Y-98020043D01*
X105520000Y-70145000D02*
X106595001Y-71220001D01*
X106595001Y-71220001D02*
X106595001Y-95661001D01*
X106595001Y-95661001D02*
X104235959Y-98020043D01*
X96743546Y-98020043D02*
X79600000Y-115163589D01*
X79600000Y-115163589D02*
X79600000Y-115855000D01*
X108755001Y-71220001D02*
X108755001Y-95635767D01*
X81760000Y-114794340D02*
X81760000Y-115855000D01*
X97634276Y-98920064D02*
X81760000Y-114794340D01*
X107680000Y-70145000D02*
X108755001Y-71220001D01*
X105470704Y-98920064D02*
X97634276Y-98920064D01*
X108755001Y-95635767D02*
X105470704Y-98920064D01*
X109840000Y-70145000D02*
X110915001Y-71220001D01*
X110915001Y-71220001D02*
X110915001Y-95661001D01*
X99887502Y-99820085D02*
X83920000Y-115787587D01*
X110915001Y-95661001D02*
X106755917Y-99820085D01*
X106755917Y-99820085D02*
X99887502Y-99820085D01*
X83920000Y-115787587D02*
X83920000Y-115855000D01*
X112000000Y-70145000D02*
X113075001Y-71220001D01*
X113075001Y-95615762D02*
X107970657Y-100720106D01*
X107970657Y-100720106D02*
X101147481Y-100720106D01*
X101147481Y-100720106D02*
X86080000Y-115787587D01*
X113075001Y-71220001D02*
X113075001Y-95615762D01*
X86080000Y-115787587D02*
X86080000Y-115855000D01*
X114160000Y-70145000D02*
X115235001Y-71220001D01*
X115235001Y-71220001D02*
X115235001Y-95661001D01*
X88240000Y-115787587D02*
X88240000Y-115855000D01*
X109275875Y-101620127D02*
X102407460Y-101620127D01*
X102407460Y-101620127D02*
X88240000Y-115787587D01*
X115235001Y-95661001D02*
X109275875Y-101620127D01*
X90400000Y-115787587D02*
X90400000Y-115855000D01*
X103667439Y-102520148D02*
X90400000Y-115787587D01*
X116320000Y-70145000D02*
X117395001Y-71220001D01*
X117395001Y-71220001D02*
X117395001Y-95661001D01*
X117395001Y-95661001D02*
X110535854Y-102520148D01*
X110535854Y-102520148D02*
X103667439Y-102520148D01*
X118480000Y-70145000D02*
X119555001Y-71220001D01*
X119555001Y-95608588D02*
X111743420Y-103420169D01*
X111743420Y-103420169D02*
X104927418Y-103420169D01*
X104927418Y-103420169D02*
X92560000Y-115787587D01*
X119555001Y-71220001D02*
X119555001Y-95608588D01*
X92560000Y-115787587D02*
X92560000Y-115855000D01*
X120640000Y-70145000D02*
X121715001Y-71220001D01*
X121715001Y-95661001D02*
X113055812Y-104320190D01*
X121715001Y-71220001D02*
X121715001Y-95661001D01*
X113055812Y-104320190D02*
X106187397Y-104320190D01*
X106187397Y-104320190D02*
X94720000Y-115787587D01*
X94720000Y-115787587D02*
X94720000Y-115855000D01*
X114315791Y-105220211D02*
X107447376Y-105220211D01*
X123875001Y-71220001D02*
X123875001Y-95661001D01*
X123875001Y-95661001D02*
X114315791Y-105220211D01*
X122800000Y-70145000D02*
X123875001Y-71220001D01*
X107447376Y-105220211D02*
X96880000Y-115787587D01*
X96880000Y-115787587D02*
X96880000Y-115855000D01*
X99040000Y-115787587D02*
X99040000Y-115855000D01*
X124588822Y-96220001D02*
X114688591Y-106120232D01*
X125476001Y-96220001D02*
X124588822Y-96220001D01*
X126035001Y-71220001D02*
X126035001Y-95661001D01*
X124960000Y-70145000D02*
X126035001Y-71220001D01*
X126035001Y-95661001D02*
X125476001Y-96220001D01*
X108707355Y-106120232D02*
X99040000Y-115787587D01*
X114688591Y-106120232D02*
X108707355Y-106120232D01*
X100124999Y-139770001D02*
X99040000Y-140855000D01*
X114874991Y-106570243D02*
X108893755Y-106570243D01*
X124775221Y-96670012D02*
X114874991Y-106570243D01*
X125662401Y-96670012D02*
X124775221Y-96670012D01*
X100124999Y-115338999D02*
X100124999Y-139770001D01*
X126485012Y-95847401D02*
X125662401Y-96670012D01*
X127055000Y-95145000D02*
X126485012Y-95714988D01*
X108893755Y-106570243D02*
X100124999Y-115338999D01*
X127120000Y-95145000D02*
X127055000Y-95145000D01*
X126485012Y-95714988D02*
X126485012Y-95847401D01*
X96880000Y-140720000D02*
X96880000Y-140855000D01*
X97964999Y-139635001D02*
X96880000Y-140720000D01*
X124960000Y-95145000D02*
X124960000Y-95212413D01*
X114502191Y-105670222D02*
X107633776Y-105670222D01*
X97964999Y-115338999D02*
X97964999Y-139635001D01*
X107633776Y-105670222D02*
X97964999Y-115338999D01*
X124960000Y-95212413D02*
X114502191Y-105670222D01*
X95795001Y-115348997D02*
X95795001Y-139779999D01*
X106373797Y-104770201D02*
X95795001Y-115348997D01*
X113242212Y-104770201D02*
X106373797Y-104770201D01*
X95795001Y-139779999D02*
X94720000Y-140855000D01*
X122165012Y-95847401D02*
X113242212Y-104770201D01*
X122165012Y-95145000D02*
X122165012Y-95847401D01*
X122800000Y-95145000D02*
X122165012Y-95145000D01*
X105113818Y-103870180D02*
X93644999Y-115338999D01*
X120005012Y-95847401D02*
X111982233Y-103870180D01*
X111982233Y-103870180D02*
X105113818Y-103870180D01*
X120005012Y-95145000D02*
X120005012Y-95847401D01*
X93644999Y-115338999D02*
X93644999Y-139770001D01*
X120640000Y-95145000D02*
X120005012Y-95145000D01*
X93644999Y-139770001D02*
X92560000Y-140855000D01*
X110722254Y-102970159D02*
X103853839Y-102970159D01*
X117845012Y-95847401D02*
X110722254Y-102970159D01*
X117845012Y-95145000D02*
X117845012Y-95847401D01*
X103853839Y-102970159D02*
X91484999Y-115338999D01*
X118480000Y-95145000D02*
X117845012Y-95145000D01*
X91484999Y-139770001D02*
X90400000Y-140855000D01*
X91484999Y-115338999D02*
X91484999Y-139770001D01*
X89324999Y-115338999D02*
X89324999Y-139770001D01*
X115685012Y-95145000D02*
X115685012Y-95847401D01*
X116320000Y-95145000D02*
X115685012Y-95145000D01*
X115685012Y-95847401D02*
X109462275Y-102070138D01*
X89324999Y-139770001D02*
X88240000Y-140855000D01*
X109462275Y-102070138D02*
X102593860Y-102070138D01*
X102593860Y-102070138D02*
X89324999Y-115338999D01*
X87164999Y-139770001D02*
X86080000Y-140855000D01*
X101333881Y-101170117D02*
X87164999Y-115338999D01*
X108202296Y-101170117D02*
X101333881Y-101170117D01*
X113525012Y-95145000D02*
X113525012Y-95847401D01*
X87164999Y-115338999D02*
X87164999Y-139770001D01*
X114160000Y-95145000D02*
X113525012Y-95145000D01*
X113525012Y-95847401D02*
X108202296Y-101170117D01*
X84995001Y-139779999D02*
X83920000Y-140855000D01*
X84995001Y-115348997D02*
X84995001Y-139779999D01*
X100073902Y-100270096D02*
X84995001Y-115348997D01*
X111365012Y-95847401D02*
X106942317Y-100270096D01*
X106942317Y-100270096D02*
X100073902Y-100270096D01*
X111365012Y-95145000D02*
X111365012Y-95847401D01*
X112000000Y-95145000D02*
X111365012Y-95145000D01*
X82844999Y-115338999D02*
X82844999Y-139770001D01*
X98813923Y-99370075D02*
X82844999Y-115338999D01*
X105682338Y-99370075D02*
X98813923Y-99370075D01*
X109205012Y-95847401D02*
X105682338Y-99370075D01*
X109840000Y-95145000D02*
X109205012Y-95145000D01*
X109205012Y-95145000D02*
X109205012Y-95847401D01*
X82844999Y-139770001D02*
X81760000Y-140855000D01*
X107045012Y-95145000D02*
X107045012Y-95847401D01*
X104422359Y-98470054D02*
X96929946Y-98470054D01*
X107680000Y-95145000D02*
X107045012Y-95145000D01*
X107045012Y-95847401D02*
X104422359Y-98470054D01*
X80675001Y-139779999D02*
X79600000Y-140855000D01*
X80675001Y-114724999D02*
X80675001Y-139779999D01*
X96929946Y-98470054D02*
X80675001Y-114724999D01*
X78524999Y-139770001D02*
X77440000Y-140855000D01*
X78524999Y-115338999D02*
X78524999Y-139770001D01*
X96293965Y-97570033D02*
X78524999Y-115338999D01*
X103162380Y-97570033D02*
X96293965Y-97570033D01*
X104885012Y-95847401D02*
X103162380Y-97570033D01*
X105520000Y-95145000D02*
X104885012Y-95145000D01*
X104885012Y-95145000D02*
X104885012Y-95847401D01*
X76364999Y-115338999D02*
X76364999Y-139770001D01*
X101834988Y-96670012D02*
X95033986Y-96670012D01*
X103360000Y-95145000D02*
X101834988Y-96670012D01*
X76364999Y-139770001D02*
X75280000Y-140855000D01*
X95033986Y-96670012D02*
X76364999Y-115338999D01*
X100115001Y-144060001D02*
X101200000Y-145145000D01*
X100115001Y-140416409D02*
X100115001Y-144060001D01*
X102284999Y-138246412D02*
X100115001Y-140416409D01*
X102284999Y-116930001D02*
X102284999Y-138246412D01*
X103360000Y-115855000D02*
X102284999Y-116930001D01*
X102284999Y-144069999D02*
X103360000Y-145145000D01*
X102284999Y-140338999D02*
X102284999Y-144069999D01*
X104444999Y-138178999D02*
X102284999Y-140338999D01*
X105520000Y-115855000D02*
X104444999Y-116930001D01*
X104444999Y-116930001D02*
X104444999Y-138178999D01*
X106595001Y-116939999D02*
X106595001Y-138188997D01*
X106595001Y-138188997D02*
X104444999Y-140338999D01*
X104444999Y-140338999D02*
X104444999Y-144069999D01*
X104444999Y-144069999D02*
X105520000Y-145145000D01*
X107680000Y-115855000D02*
X106595001Y-116939999D01*
X106604999Y-144069999D02*
X107680000Y-145145000D01*
X108755001Y-138188997D02*
X106604999Y-140338999D01*
X106604999Y-140338999D02*
X106604999Y-144069999D01*
X108755001Y-116939999D02*
X108755001Y-138188997D01*
X109840000Y-115855000D02*
X108755001Y-116939999D01*
X110924999Y-138178999D02*
X108764999Y-140338999D01*
X110924999Y-116930001D02*
X110924999Y-138178999D01*
X108764999Y-144069999D02*
X109840000Y-145145000D01*
X112000000Y-115855000D02*
X110924999Y-116930001D01*
X108764999Y-140338999D02*
X108764999Y-144069999D01*
X110924999Y-140338999D02*
X110924999Y-144069999D01*
X110924999Y-144069999D02*
X112000000Y-145145000D01*
X114160000Y-115855000D02*
X113075001Y-116939999D01*
X113075001Y-138188997D02*
X110924999Y-140338999D01*
X113075001Y-116939999D02*
X113075001Y-138188997D01*
X113084999Y-140338999D02*
X113084999Y-144069999D01*
X115235001Y-138188997D02*
X113084999Y-140338999D01*
X113084999Y-144069999D02*
X114160000Y-145145000D01*
X116320000Y-115855000D02*
X115235001Y-116939999D01*
X115235001Y-116939999D02*
X115235001Y-138188997D01*
X115244999Y-144069999D02*
X116320000Y-145145000D01*
X117404999Y-138195001D02*
X115244999Y-140355001D01*
X118480000Y-115855000D02*
X117404999Y-116930001D01*
X115244999Y-140355001D02*
X115244999Y-144069999D01*
X117404999Y-116930001D02*
X117404999Y-138195001D01*
X119555001Y-138188997D02*
X117404999Y-140338999D01*
X117404999Y-140338999D02*
X117404999Y-144069999D01*
X119555001Y-116939999D02*
X119555001Y-138188997D01*
X120640000Y-115855000D02*
X119555001Y-116939999D01*
X117404999Y-144069999D02*
X118480000Y-145145000D01*
X119555001Y-144060001D02*
X120640000Y-145145000D01*
X119555001Y-140348997D02*
X119555001Y-144060001D01*
X121724999Y-138178999D02*
X119555001Y-140348997D01*
X121724999Y-116930001D02*
X121724999Y-138178999D01*
X122800000Y-115855000D02*
X121724999Y-116930001D01*
X121715001Y-144060001D02*
X122800000Y-145145000D01*
X123884999Y-138178999D02*
X121715001Y-140348997D01*
X123884999Y-116930001D02*
X123884999Y-138178999D01*
X124960000Y-115855000D02*
X123884999Y-116930001D01*
X121715001Y-140348997D02*
X121715001Y-144060001D01*
X123875001Y-139461817D02*
X123875001Y-144060001D01*
X126044999Y-137291819D02*
X123875001Y-139461817D01*
X126044999Y-116930001D02*
X126044999Y-137291819D01*
X127120000Y-115855000D02*
X126044999Y-116930001D01*
X123875001Y-144060001D02*
X124960000Y-145145000D01*
X101200000Y-140200000D02*
X101200000Y-140855000D01*
X103360000Y-138040000D02*
X101200000Y-140200000D01*
X103360000Y-120145000D02*
X103360000Y-138040000D01*
X105520000Y-120145000D02*
X105520000Y-137740408D01*
X105520000Y-137740408D02*
X103360000Y-139900408D01*
X103360000Y-139900408D02*
X103360000Y-140855000D01*
X107680000Y-137740408D02*
X105520000Y-139900408D01*
X107680000Y-120145000D02*
X107680000Y-137740408D01*
X105520000Y-139900408D02*
X105520000Y-140855000D01*
X109840000Y-120145000D02*
X109840000Y-137740408D01*
X109840000Y-137740408D02*
X107680000Y-139900408D01*
X107680000Y-139900408D02*
X107680000Y-140855000D01*
X109840000Y-139900408D02*
X109840000Y-140855000D01*
X112000000Y-137740408D02*
X109840000Y-139900408D01*
X112000000Y-120145000D02*
X112000000Y-137740408D01*
X114160000Y-120145000D02*
X114160000Y-137740408D01*
X114160000Y-137740408D02*
X112000000Y-139900408D01*
X112000000Y-139900408D02*
X112000000Y-140855000D01*
X116320000Y-120145000D02*
X116320000Y-137740408D01*
X116320000Y-137740408D02*
X114160000Y-139900408D01*
X114160000Y-139900408D02*
X114160000Y-140855000D01*
X116320000Y-139916426D02*
X116320000Y-140855000D01*
X118480000Y-120145000D02*
X118480000Y-137756426D01*
X118480000Y-137756426D02*
X116320000Y-139916426D01*
X120640000Y-137740408D02*
X118480000Y-139900408D01*
X118480000Y-139900408D02*
X118480000Y-140855000D01*
X120640000Y-120145000D02*
X120640000Y-137740408D01*
X120640000Y-139900408D02*
X120640000Y-140855000D01*
X122800000Y-120145000D02*
X122800000Y-137740408D01*
X122800000Y-137740408D02*
X120640000Y-139900408D01*
X124960000Y-137740408D02*
X122800000Y-139900408D01*
X124960000Y-120145000D02*
X124960000Y-137740408D01*
X122800000Y-139900408D02*
X122800000Y-140855000D01*
X127120000Y-120145000D02*
X127120000Y-138695000D01*
X127120000Y-138695000D02*
X124960000Y-140855000D01*
M02*
