%FSLAX45Y45*%
G04 Gerber Fmt 4.5, Leading zero omitted, Abs format (unit mm)*
G04 Created by KiCad (PCBNEW (5.1.10-1-10_14)) date 2022-03-30 11:01:11*
%MOMM*%
%LPD*%
G01*
G04 APERTURE LIST*
%TA.AperFunction,Profile*%
%ADD10C,0.050000*%
%TD*%
%ADD11C,0.200000*%
%ADD12C,0.300000*%
G04 APERTURE END LIST*
D10*
X16220000Y-3800000D02*
G75*
G02*
X16720000Y-4300000I0J-500000D01*
G01*
X16720000Y-16800000D02*
G75*
G02*
X16220000Y-17300000I-500000J0D01*
G01*
X4020000Y-17300000D02*
G75*
G02*
X3520000Y-16800000I0J500000D01*
G01*
X3520000Y-4300000D02*
G75*
G02*
X4020000Y-3800000I500000J0D01*
G01*
X3520000Y-4300000D02*
X3520000Y-16800000D01*
X4020000Y-17300000D02*
X16220000Y-17300000D01*
X16720000Y-4300000D02*
X16720000Y-16800000D01*
X4020000Y-3800000D02*
X16220000Y-3800000D01*
D11*
X6217500Y-6640000D02*
X6537500Y-6960000D01*
X6537500Y-6640000D02*
X6217500Y-6960000D01*
X6217500Y-9140000D02*
X6537500Y-9460000D01*
X6537500Y-9140000D02*
X6217500Y-9460000D01*
X6217500Y-11640000D02*
X6537500Y-11960000D01*
X6537500Y-11640000D02*
X6217500Y-11960000D01*
X6217500Y-14140000D02*
X6537500Y-14460000D01*
X6537500Y-14140000D02*
X6217500Y-14460000D01*
X13702500Y-6640000D02*
X14022500Y-6960000D01*
X14022500Y-6640000D02*
X13702500Y-6960000D01*
X13702500Y-9140000D02*
X14022500Y-9460000D01*
X14022500Y-9140000D02*
X13702500Y-9460000D01*
X13702500Y-11640000D02*
X14022500Y-11960000D01*
X14022500Y-11640000D02*
X13702500Y-11960000D01*
X13702500Y-14140000D02*
X14022500Y-14460000D01*
X14022500Y-14140000D02*
X13702500Y-14460000D01*
X4785000Y-4800000D02*
G75*
G03*
X4785000Y-4800000I-265000J0D01*
G01*
X4785000Y-16300000D02*
G75*
G03*
X4785000Y-16300000I-265000J0D01*
G01*
X15985000Y-4800000D02*
G75*
G03*
X15985000Y-4800000I-265000J0D01*
G01*
X15985000Y-16300000D02*
G75*
G03*
X15985000Y-16300000I-265000J0D01*
G01*
D12*
X3803928Y-17768214D02*
X3803928Y-17468214D01*
X3875357Y-17468214D01*
X3918214Y-17482500D01*
X3946786Y-17511072D01*
X3961071Y-17539643D01*
X3975357Y-17596786D01*
X3975357Y-17639643D01*
X3961071Y-17696786D01*
X3946786Y-17725357D01*
X3918214Y-17753929D01*
X3875357Y-17768214D01*
X3803928Y-17768214D01*
X4103928Y-17768214D02*
X4103928Y-17568214D01*
X4103928Y-17625357D02*
X4118214Y-17596786D01*
X4132500Y-17582500D01*
X4161071Y-17568214D01*
X4189643Y-17568214D01*
X4289643Y-17768214D02*
X4289643Y-17568214D01*
X4289643Y-17468214D02*
X4275357Y-17482500D01*
X4289643Y-17496786D01*
X4303928Y-17482500D01*
X4289643Y-17468214D01*
X4289643Y-17496786D01*
X4475357Y-17768214D02*
X4446786Y-17753929D01*
X4432500Y-17725357D01*
X4432500Y-17468214D01*
X4632500Y-17768214D02*
X4603928Y-17753929D01*
X4589643Y-17725357D01*
X4589643Y-17468214D01*
X4975357Y-17768214D02*
X4975357Y-17468214D01*
X5075357Y-17682500D01*
X5175357Y-17468214D01*
X5175357Y-17768214D01*
X5446786Y-17768214D02*
X5446786Y-17611072D01*
X5432500Y-17582500D01*
X5403928Y-17568214D01*
X5346786Y-17568214D01*
X5318214Y-17582500D01*
X5446786Y-17753929D02*
X5418214Y-17768214D01*
X5346786Y-17768214D01*
X5318214Y-17753929D01*
X5303928Y-17725357D01*
X5303928Y-17696786D01*
X5318214Y-17668214D01*
X5346786Y-17653929D01*
X5418214Y-17653929D01*
X5446786Y-17639643D01*
X5589643Y-17568214D02*
X5589643Y-17868214D01*
X5589643Y-17582500D02*
X5618214Y-17568214D01*
X5675357Y-17568214D01*
X5703928Y-17582500D01*
X5718214Y-17596786D01*
X5732500Y-17625357D01*
X5732500Y-17711072D01*
X5718214Y-17739643D01*
X5703928Y-17753929D01*
X5675357Y-17768214D01*
X5618214Y-17768214D01*
X5589643Y-17753929D01*
X5861071Y-17739643D02*
X5875357Y-17753929D01*
X5861071Y-17768214D01*
X5846786Y-17753929D01*
X5861071Y-17739643D01*
X5861071Y-17768214D01*
X5861071Y-17582500D02*
X5875357Y-17596786D01*
X5861071Y-17611072D01*
X5846786Y-17596786D01*
X5861071Y-17582500D01*
X5861071Y-17611072D01*
X3197500Y-18102500D02*
X3517500Y-18422500D01*
X3517500Y-18102500D02*
X3197500Y-18422500D01*
X3775357Y-18098214D02*
X3961071Y-18098214D01*
X3861071Y-18212500D01*
X3903928Y-18212500D01*
X3932500Y-18226786D01*
X3946786Y-18241072D01*
X3961071Y-18269643D01*
X3961071Y-18341072D01*
X3946786Y-18369643D01*
X3932500Y-18383929D01*
X3903928Y-18398214D01*
X3818214Y-18398214D01*
X3789643Y-18383929D01*
X3775357Y-18369643D01*
X4089643Y-18369643D02*
X4103928Y-18383929D01*
X4089643Y-18398214D01*
X4075357Y-18383929D01*
X4089643Y-18369643D01*
X4089643Y-18398214D01*
X4218214Y-18126786D02*
X4232500Y-18112500D01*
X4261071Y-18098214D01*
X4332500Y-18098214D01*
X4361071Y-18112500D01*
X4375357Y-18126786D01*
X4389643Y-18155357D01*
X4389643Y-18183929D01*
X4375357Y-18226786D01*
X4203928Y-18398214D01*
X4389643Y-18398214D01*
X4575357Y-18098214D02*
X4603928Y-18098214D01*
X4632500Y-18112500D01*
X4646786Y-18126786D01*
X4661071Y-18155357D01*
X4675357Y-18212500D01*
X4675357Y-18283929D01*
X4661071Y-18341072D01*
X4646786Y-18369643D01*
X4632500Y-18383929D01*
X4603928Y-18398214D01*
X4575357Y-18398214D01*
X4546786Y-18383929D01*
X4532500Y-18369643D01*
X4518214Y-18341072D01*
X4503928Y-18283929D01*
X4503928Y-18212500D01*
X4518214Y-18155357D01*
X4532500Y-18126786D01*
X4546786Y-18112500D01*
X4575357Y-18098214D01*
X4861071Y-18098214D02*
X4889643Y-18098214D01*
X4918214Y-18112500D01*
X4932500Y-18126786D01*
X4946786Y-18155357D01*
X4961071Y-18212500D01*
X4961071Y-18283929D01*
X4946786Y-18341072D01*
X4932500Y-18369643D01*
X4918214Y-18383929D01*
X4889643Y-18398214D01*
X4861071Y-18398214D01*
X4832500Y-18383929D01*
X4818214Y-18369643D01*
X4803928Y-18341072D01*
X4789643Y-18283929D01*
X4789643Y-18212500D01*
X4803928Y-18155357D01*
X4818214Y-18126786D01*
X4832500Y-18112500D01*
X4861071Y-18098214D01*
X5089643Y-18398214D02*
X5089643Y-18198214D01*
X5089643Y-18226786D02*
X5103928Y-18212500D01*
X5132500Y-18198214D01*
X5175357Y-18198214D01*
X5203928Y-18212500D01*
X5218214Y-18241072D01*
X5218214Y-18398214D01*
X5218214Y-18241072D02*
X5232500Y-18212500D01*
X5261071Y-18198214D01*
X5303928Y-18198214D01*
X5332500Y-18212500D01*
X5346786Y-18241072D01*
X5346786Y-18398214D01*
X5489643Y-18398214D02*
X5489643Y-18198214D01*
X5489643Y-18226786D02*
X5503928Y-18212500D01*
X5532500Y-18198214D01*
X5575357Y-18198214D01*
X5603928Y-18212500D01*
X5618214Y-18241072D01*
X5618214Y-18398214D01*
X5618214Y-18241072D02*
X5632500Y-18212500D01*
X5661071Y-18198214D01*
X5703928Y-18198214D01*
X5732500Y-18212500D01*
X5746786Y-18241072D01*
X5746786Y-18398214D01*
X6332500Y-18083929D02*
X6075357Y-18469643D01*
X6718214Y-18098214D02*
X6746786Y-18098214D01*
X6775357Y-18112500D01*
X6789643Y-18126786D01*
X6803928Y-18155357D01*
X6818214Y-18212500D01*
X6818214Y-18283929D01*
X6803928Y-18341072D01*
X6789643Y-18369643D01*
X6775357Y-18383929D01*
X6746786Y-18398214D01*
X6718214Y-18398214D01*
X6689643Y-18383929D01*
X6675357Y-18369643D01*
X6661071Y-18341072D01*
X6646786Y-18283929D01*
X6646786Y-18212500D01*
X6661071Y-18155357D01*
X6675357Y-18126786D01*
X6689643Y-18112500D01*
X6718214Y-18098214D01*
X6946786Y-18369643D02*
X6961071Y-18383929D01*
X6946786Y-18398214D01*
X6932500Y-18383929D01*
X6946786Y-18369643D01*
X6946786Y-18398214D01*
X7246786Y-18398214D02*
X7075357Y-18398214D01*
X7161071Y-18398214D02*
X7161071Y-18098214D01*
X7132500Y-18141072D01*
X7103928Y-18169643D01*
X7075357Y-18183929D01*
X7361071Y-18126786D02*
X7375357Y-18112500D01*
X7403928Y-18098214D01*
X7475357Y-18098214D01*
X7503928Y-18112500D01*
X7518214Y-18126786D01*
X7532500Y-18155357D01*
X7532500Y-18183929D01*
X7518214Y-18226786D01*
X7346786Y-18398214D01*
X7532500Y-18398214D01*
X7789643Y-18098214D02*
X7732500Y-18098214D01*
X7703928Y-18112500D01*
X7689643Y-18126786D01*
X7661071Y-18169643D01*
X7646786Y-18226786D01*
X7646786Y-18341072D01*
X7661071Y-18369643D01*
X7675357Y-18383929D01*
X7703928Y-18398214D01*
X7761071Y-18398214D01*
X7789643Y-18383929D01*
X7803928Y-18369643D01*
X7818214Y-18341072D01*
X7818214Y-18269643D01*
X7803928Y-18241072D01*
X7789643Y-18226786D01*
X7761071Y-18212500D01*
X7703928Y-18212500D01*
X7675357Y-18226786D01*
X7661071Y-18241072D01*
X7646786Y-18269643D01*
X8003928Y-18098214D02*
X8032500Y-18098214D01*
X8061071Y-18112500D01*
X8075357Y-18126786D01*
X8089643Y-18155357D01*
X8103928Y-18212500D01*
X8103928Y-18283929D01*
X8089643Y-18341072D01*
X8075357Y-18369643D01*
X8061071Y-18383929D01*
X8032500Y-18398214D01*
X8003928Y-18398214D01*
X7975357Y-18383929D01*
X7961071Y-18369643D01*
X7946786Y-18341072D01*
X7932500Y-18283929D01*
X7932500Y-18212500D01*
X7946786Y-18155357D01*
X7961071Y-18126786D01*
X7975357Y-18112500D01*
X8003928Y-18098214D01*
X8218214Y-18098214D02*
X8218214Y-18155357D01*
X8332500Y-18098214D02*
X8332500Y-18155357D01*
X8775357Y-18512500D02*
X8761071Y-18498214D01*
X8732500Y-18455357D01*
X8718214Y-18426786D01*
X8703928Y-18383929D01*
X8689643Y-18312500D01*
X8689643Y-18255357D01*
X8703928Y-18183929D01*
X8718214Y-18141072D01*
X8732500Y-18112500D01*
X8761071Y-18069643D01*
X8775357Y-18055357D01*
X8932500Y-18226786D02*
X8903928Y-18212500D01*
X8889643Y-18198214D01*
X8875357Y-18169643D01*
X8875357Y-18155357D01*
X8889643Y-18126786D01*
X8903928Y-18112500D01*
X8932500Y-18098214D01*
X8989643Y-18098214D01*
X9018214Y-18112500D01*
X9032500Y-18126786D01*
X9046786Y-18155357D01*
X9046786Y-18169643D01*
X9032500Y-18198214D01*
X9018214Y-18212500D01*
X8989643Y-18226786D01*
X8932500Y-18226786D01*
X8903928Y-18241072D01*
X8889643Y-18255357D01*
X8875357Y-18283929D01*
X8875357Y-18341072D01*
X8889643Y-18369643D01*
X8903928Y-18383929D01*
X8932500Y-18398214D01*
X8989643Y-18398214D01*
X9018214Y-18383929D01*
X9032500Y-18369643D01*
X9046786Y-18341072D01*
X9046786Y-18283929D01*
X9032500Y-18255357D01*
X9018214Y-18241072D01*
X8989643Y-18226786D01*
X9403928Y-18398214D02*
X9403928Y-18098214D01*
X9532500Y-18398214D02*
X9532500Y-18241072D01*
X9518214Y-18212500D01*
X9489643Y-18198214D01*
X9446786Y-18198214D01*
X9418214Y-18212500D01*
X9403928Y-18226786D01*
X9718214Y-18398214D02*
X9689643Y-18383929D01*
X9675357Y-18369643D01*
X9661071Y-18341072D01*
X9661071Y-18255357D01*
X9675357Y-18226786D01*
X9689643Y-18212500D01*
X9718214Y-18198214D01*
X9761071Y-18198214D01*
X9789643Y-18212500D01*
X9803928Y-18226786D01*
X9818214Y-18255357D01*
X9818214Y-18341072D01*
X9803928Y-18369643D01*
X9789643Y-18383929D01*
X9761071Y-18398214D01*
X9718214Y-18398214D01*
X9989643Y-18398214D02*
X9961071Y-18383929D01*
X9946786Y-18355357D01*
X9946786Y-18098214D01*
X10218214Y-18383929D02*
X10189643Y-18398214D01*
X10132500Y-18398214D01*
X10103928Y-18383929D01*
X10089643Y-18355357D01*
X10089643Y-18241072D01*
X10103928Y-18212500D01*
X10132500Y-18198214D01*
X10189643Y-18198214D01*
X10218214Y-18212500D01*
X10232500Y-18241072D01*
X10232500Y-18269643D01*
X10089643Y-18298214D01*
X10346786Y-18383929D02*
X10375357Y-18398214D01*
X10432500Y-18398214D01*
X10461071Y-18383929D01*
X10475357Y-18355357D01*
X10475357Y-18341072D01*
X10461071Y-18312500D01*
X10432500Y-18298214D01*
X10389643Y-18298214D01*
X10361071Y-18283929D01*
X10346786Y-18255357D01*
X10346786Y-18241072D01*
X10361071Y-18212500D01*
X10389643Y-18198214D01*
X10432500Y-18198214D01*
X10461071Y-18212500D01*
X10575357Y-18512500D02*
X10589643Y-18498214D01*
X10618214Y-18455357D01*
X10632500Y-18426786D01*
X10646786Y-18383929D01*
X10661071Y-18312500D01*
X10661071Y-18255357D01*
X10646786Y-18183929D01*
X10632500Y-18141072D01*
X10618214Y-18112500D01*
X10589643Y-18069643D01*
X10575357Y-18055357D01*
X11118214Y-18512500D02*
X11103928Y-18498214D01*
X11075357Y-18455357D01*
X11061071Y-18426786D01*
X11046786Y-18383929D01*
X11032500Y-18312500D01*
X11032500Y-18255357D01*
X11046786Y-18183929D01*
X11061071Y-18141072D01*
X11075357Y-18112500D01*
X11103928Y-18069643D01*
X11118214Y-18055357D01*
X11232500Y-18198214D02*
X11232500Y-18398214D01*
X11232500Y-18226786D02*
X11246786Y-18212500D01*
X11275357Y-18198214D01*
X11318214Y-18198214D01*
X11346786Y-18212500D01*
X11361071Y-18241072D01*
X11361071Y-18398214D01*
X11546786Y-18398214D02*
X11518214Y-18383929D01*
X11503928Y-18369643D01*
X11489643Y-18341072D01*
X11489643Y-18255357D01*
X11503928Y-18226786D01*
X11518214Y-18212500D01*
X11546786Y-18198214D01*
X11589643Y-18198214D01*
X11618214Y-18212500D01*
X11632500Y-18226786D01*
X11646786Y-18255357D01*
X11646786Y-18341072D01*
X11632500Y-18369643D01*
X11618214Y-18383929D01*
X11589643Y-18398214D01*
X11546786Y-18398214D01*
X11732500Y-18198214D02*
X11846786Y-18198214D01*
X11775357Y-18098214D02*
X11775357Y-18355357D01*
X11789643Y-18383929D01*
X11818214Y-18398214D01*
X11846786Y-18398214D01*
X12175357Y-18198214D02*
X12175357Y-18498214D01*
X12175357Y-18212500D02*
X12203928Y-18198214D01*
X12261071Y-18198214D01*
X12289643Y-18212500D01*
X12303928Y-18226786D01*
X12318214Y-18255357D01*
X12318214Y-18341072D01*
X12303928Y-18369643D01*
X12289643Y-18383929D01*
X12261071Y-18398214D01*
X12203928Y-18398214D01*
X12175357Y-18383929D01*
X12489643Y-18398214D02*
X12461071Y-18383929D01*
X12446786Y-18355357D01*
X12446786Y-18098214D01*
X12732500Y-18398214D02*
X12732500Y-18241072D01*
X12718214Y-18212500D01*
X12689643Y-18198214D01*
X12632500Y-18198214D01*
X12603928Y-18212500D01*
X12732500Y-18383929D02*
X12703928Y-18398214D01*
X12632500Y-18398214D01*
X12603928Y-18383929D01*
X12589643Y-18355357D01*
X12589643Y-18326786D01*
X12603928Y-18298214D01*
X12632500Y-18283929D01*
X12703928Y-18283929D01*
X12732500Y-18269643D01*
X12832500Y-18198214D02*
X12946786Y-18198214D01*
X12875357Y-18098214D02*
X12875357Y-18355357D01*
X12889643Y-18383929D01*
X12918214Y-18398214D01*
X12946786Y-18398214D01*
X13161071Y-18383929D02*
X13132500Y-18398214D01*
X13075357Y-18398214D01*
X13046786Y-18383929D01*
X13032500Y-18355357D01*
X13032500Y-18241072D01*
X13046786Y-18212500D01*
X13075357Y-18198214D01*
X13132500Y-18198214D01*
X13161071Y-18212500D01*
X13175357Y-18241072D01*
X13175357Y-18269643D01*
X13032500Y-18298214D01*
X13432500Y-18398214D02*
X13432500Y-18098214D01*
X13432500Y-18383929D02*
X13403928Y-18398214D01*
X13346786Y-18398214D01*
X13318214Y-18383929D01*
X13303928Y-18369643D01*
X13289643Y-18341072D01*
X13289643Y-18255357D01*
X13303928Y-18226786D01*
X13318214Y-18212500D01*
X13346786Y-18198214D01*
X13403928Y-18198214D01*
X13432500Y-18212500D01*
X13546786Y-18512500D02*
X13561071Y-18498214D01*
X13589643Y-18455357D01*
X13603928Y-18426786D01*
X13618214Y-18383929D01*
X13632500Y-18312500D01*
X13632500Y-18255357D01*
X13618214Y-18183929D01*
X13603928Y-18141072D01*
X13589643Y-18112500D01*
X13561071Y-18069643D01*
X13546786Y-18055357D01*
X3517500Y-18712500D02*
G75*
G03*
X3517500Y-18712500I-265000J0D01*
G01*
X3946786Y-18548214D02*
X3803928Y-18548214D01*
X3789643Y-18691072D01*
X3803928Y-18676786D01*
X3832500Y-18662500D01*
X3903928Y-18662500D01*
X3932500Y-18676786D01*
X3946786Y-18691072D01*
X3961071Y-18719643D01*
X3961071Y-18791072D01*
X3946786Y-18819643D01*
X3932500Y-18833929D01*
X3903928Y-18848214D01*
X3832500Y-18848214D01*
X3803928Y-18833929D01*
X3789643Y-18819643D01*
X4089643Y-18819643D02*
X4103928Y-18833929D01*
X4089643Y-18848214D01*
X4075357Y-18833929D01*
X4089643Y-18819643D01*
X4089643Y-18848214D01*
X4203928Y-18548214D02*
X4389643Y-18548214D01*
X4289643Y-18662500D01*
X4332500Y-18662500D01*
X4361071Y-18676786D01*
X4375357Y-18691072D01*
X4389643Y-18719643D01*
X4389643Y-18791072D01*
X4375357Y-18819643D01*
X4361071Y-18833929D01*
X4332500Y-18848214D01*
X4246786Y-18848214D01*
X4218214Y-18833929D01*
X4203928Y-18819643D01*
X4575357Y-18548214D02*
X4603928Y-18548214D01*
X4632500Y-18562500D01*
X4646786Y-18576786D01*
X4661071Y-18605357D01*
X4675357Y-18662500D01*
X4675357Y-18733929D01*
X4661071Y-18791072D01*
X4646786Y-18819643D01*
X4632500Y-18833929D01*
X4603928Y-18848214D01*
X4575357Y-18848214D01*
X4546786Y-18833929D01*
X4532500Y-18819643D01*
X4518214Y-18791072D01*
X4503928Y-18733929D01*
X4503928Y-18662500D01*
X4518214Y-18605357D01*
X4532500Y-18576786D01*
X4546786Y-18562500D01*
X4575357Y-18548214D01*
X4861071Y-18548214D02*
X4889643Y-18548214D01*
X4918214Y-18562500D01*
X4932500Y-18576786D01*
X4946786Y-18605357D01*
X4961071Y-18662500D01*
X4961071Y-18733929D01*
X4946786Y-18791072D01*
X4932500Y-18819643D01*
X4918214Y-18833929D01*
X4889643Y-18848214D01*
X4861071Y-18848214D01*
X4832500Y-18833929D01*
X4818214Y-18819643D01*
X4803928Y-18791072D01*
X4789643Y-18733929D01*
X4789643Y-18662500D01*
X4803928Y-18605357D01*
X4818214Y-18576786D01*
X4832500Y-18562500D01*
X4861071Y-18548214D01*
X5089643Y-18848214D02*
X5089643Y-18648214D01*
X5089643Y-18676786D02*
X5103928Y-18662500D01*
X5132500Y-18648214D01*
X5175357Y-18648214D01*
X5203928Y-18662500D01*
X5218214Y-18691072D01*
X5218214Y-18848214D01*
X5218214Y-18691072D02*
X5232500Y-18662500D01*
X5261071Y-18648214D01*
X5303928Y-18648214D01*
X5332500Y-18662500D01*
X5346786Y-18691072D01*
X5346786Y-18848214D01*
X5489643Y-18848214D02*
X5489643Y-18648214D01*
X5489643Y-18676786D02*
X5503928Y-18662500D01*
X5532500Y-18648214D01*
X5575357Y-18648214D01*
X5603928Y-18662500D01*
X5618214Y-18691072D01*
X5618214Y-18848214D01*
X5618214Y-18691072D02*
X5632500Y-18662500D01*
X5661071Y-18648214D01*
X5703928Y-18648214D01*
X5732500Y-18662500D01*
X5746786Y-18691072D01*
X5746786Y-18848214D01*
X6332500Y-18533929D02*
X6075357Y-18919643D01*
X6718214Y-18548214D02*
X6746786Y-18548214D01*
X6775357Y-18562500D01*
X6789643Y-18576786D01*
X6803928Y-18605357D01*
X6818214Y-18662500D01*
X6818214Y-18733929D01*
X6803928Y-18791072D01*
X6789643Y-18819643D01*
X6775357Y-18833929D01*
X6746786Y-18848214D01*
X6718214Y-18848214D01*
X6689643Y-18833929D01*
X6675357Y-18819643D01*
X6661071Y-18791072D01*
X6646786Y-18733929D01*
X6646786Y-18662500D01*
X6661071Y-18605357D01*
X6675357Y-18576786D01*
X6689643Y-18562500D01*
X6718214Y-18548214D01*
X6946786Y-18819643D02*
X6961071Y-18833929D01*
X6946786Y-18848214D01*
X6932500Y-18833929D01*
X6946786Y-18819643D01*
X6946786Y-18848214D01*
X7075357Y-18576786D02*
X7089643Y-18562500D01*
X7118214Y-18548214D01*
X7189643Y-18548214D01*
X7218214Y-18562500D01*
X7232500Y-18576786D01*
X7246786Y-18605357D01*
X7246786Y-18633929D01*
X7232500Y-18676786D01*
X7061071Y-18848214D01*
X7246786Y-18848214D01*
X7432500Y-18548214D02*
X7461071Y-18548214D01*
X7489643Y-18562500D01*
X7503928Y-18576786D01*
X7518214Y-18605357D01*
X7532500Y-18662500D01*
X7532500Y-18733929D01*
X7518214Y-18791072D01*
X7503928Y-18819643D01*
X7489643Y-18833929D01*
X7461071Y-18848214D01*
X7432500Y-18848214D01*
X7403928Y-18833929D01*
X7389643Y-18819643D01*
X7375357Y-18791072D01*
X7361071Y-18733929D01*
X7361071Y-18662500D01*
X7375357Y-18605357D01*
X7389643Y-18576786D01*
X7403928Y-18562500D01*
X7432500Y-18548214D01*
X7703928Y-18676786D02*
X7675357Y-18662500D01*
X7661071Y-18648214D01*
X7646786Y-18619643D01*
X7646786Y-18605357D01*
X7661071Y-18576786D01*
X7675357Y-18562500D01*
X7703928Y-18548214D01*
X7761071Y-18548214D01*
X7789643Y-18562500D01*
X7803928Y-18576786D01*
X7818214Y-18605357D01*
X7818214Y-18619643D01*
X7803928Y-18648214D01*
X7789643Y-18662500D01*
X7761071Y-18676786D01*
X7703928Y-18676786D01*
X7675357Y-18691072D01*
X7661071Y-18705357D01*
X7646786Y-18733929D01*
X7646786Y-18791072D01*
X7661071Y-18819643D01*
X7675357Y-18833929D01*
X7703928Y-18848214D01*
X7761071Y-18848214D01*
X7789643Y-18833929D01*
X7803928Y-18819643D01*
X7818214Y-18791072D01*
X7818214Y-18733929D01*
X7803928Y-18705357D01*
X7789643Y-18691072D01*
X7761071Y-18676786D01*
X7918214Y-18548214D02*
X8118214Y-18548214D01*
X7989643Y-18848214D01*
X8218214Y-18548214D02*
X8218214Y-18605357D01*
X8332500Y-18548214D02*
X8332500Y-18605357D01*
X8775357Y-18962500D02*
X8761071Y-18948214D01*
X8732500Y-18905357D01*
X8718214Y-18876786D01*
X8703928Y-18833929D01*
X8689643Y-18762500D01*
X8689643Y-18705357D01*
X8703928Y-18633929D01*
X8718214Y-18591072D01*
X8732500Y-18562500D01*
X8761071Y-18519643D01*
X8775357Y-18505357D01*
X9018214Y-18648214D02*
X9018214Y-18848214D01*
X8946786Y-18533929D02*
X8875357Y-18748214D01*
X9061071Y-18748214D01*
X9403928Y-18848214D02*
X9403928Y-18548214D01*
X9532500Y-18848214D02*
X9532500Y-18691072D01*
X9518214Y-18662500D01*
X9489643Y-18648214D01*
X9446786Y-18648214D01*
X9418214Y-18662500D01*
X9403928Y-18676786D01*
X9718214Y-18848214D02*
X9689643Y-18833929D01*
X9675357Y-18819643D01*
X9661071Y-18791072D01*
X9661071Y-18705357D01*
X9675357Y-18676786D01*
X9689643Y-18662500D01*
X9718214Y-18648214D01*
X9761071Y-18648214D01*
X9789643Y-18662500D01*
X9803928Y-18676786D01*
X9818214Y-18705357D01*
X9818214Y-18791072D01*
X9803928Y-18819643D01*
X9789643Y-18833929D01*
X9761071Y-18848214D01*
X9718214Y-18848214D01*
X9989643Y-18848214D02*
X9961071Y-18833929D01*
X9946786Y-18805357D01*
X9946786Y-18548214D01*
X10218214Y-18833929D02*
X10189643Y-18848214D01*
X10132500Y-18848214D01*
X10103928Y-18833929D01*
X10089643Y-18805357D01*
X10089643Y-18691072D01*
X10103928Y-18662500D01*
X10132500Y-18648214D01*
X10189643Y-18648214D01*
X10218214Y-18662500D01*
X10232500Y-18691072D01*
X10232500Y-18719643D01*
X10089643Y-18748214D01*
X10346786Y-18833929D02*
X10375357Y-18848214D01*
X10432500Y-18848214D01*
X10461071Y-18833929D01*
X10475357Y-18805357D01*
X10475357Y-18791072D01*
X10461071Y-18762500D01*
X10432500Y-18748214D01*
X10389643Y-18748214D01*
X10361071Y-18733929D01*
X10346786Y-18705357D01*
X10346786Y-18691072D01*
X10361071Y-18662500D01*
X10389643Y-18648214D01*
X10432500Y-18648214D01*
X10461071Y-18662500D01*
X10575357Y-18962500D02*
X10589643Y-18948214D01*
X10618214Y-18905357D01*
X10632500Y-18876786D01*
X10646786Y-18833929D01*
X10661071Y-18762500D01*
X10661071Y-18705357D01*
X10646786Y-18633929D01*
X10632500Y-18591072D01*
X10618214Y-18562500D01*
X10589643Y-18519643D01*
X10575357Y-18505357D01*
X11118214Y-18962500D02*
X11103928Y-18948214D01*
X11075357Y-18905357D01*
X11061071Y-18876786D01*
X11046786Y-18833929D01*
X11032500Y-18762500D01*
X11032500Y-18705357D01*
X11046786Y-18633929D01*
X11061071Y-18591072D01*
X11075357Y-18562500D01*
X11103928Y-18519643D01*
X11118214Y-18505357D01*
X11232500Y-18648214D02*
X11232500Y-18848214D01*
X11232500Y-18676786D02*
X11246786Y-18662500D01*
X11275357Y-18648214D01*
X11318214Y-18648214D01*
X11346786Y-18662500D01*
X11361071Y-18691072D01*
X11361071Y-18848214D01*
X11546786Y-18848214D02*
X11518214Y-18833929D01*
X11503928Y-18819643D01*
X11489643Y-18791072D01*
X11489643Y-18705357D01*
X11503928Y-18676786D01*
X11518214Y-18662500D01*
X11546786Y-18648214D01*
X11589643Y-18648214D01*
X11618214Y-18662500D01*
X11632500Y-18676786D01*
X11646786Y-18705357D01*
X11646786Y-18791072D01*
X11632500Y-18819643D01*
X11618214Y-18833929D01*
X11589643Y-18848214D01*
X11546786Y-18848214D01*
X11732500Y-18648214D02*
X11846786Y-18648214D01*
X11775357Y-18548214D02*
X11775357Y-18805357D01*
X11789643Y-18833929D01*
X11818214Y-18848214D01*
X11846786Y-18848214D01*
X12175357Y-18648214D02*
X12175357Y-18948214D01*
X12175357Y-18662500D02*
X12203928Y-18648214D01*
X12261071Y-18648214D01*
X12289643Y-18662500D01*
X12303928Y-18676786D01*
X12318214Y-18705357D01*
X12318214Y-18791072D01*
X12303928Y-18819643D01*
X12289643Y-18833929D01*
X12261071Y-18848214D01*
X12203928Y-18848214D01*
X12175357Y-18833929D01*
X12489643Y-18848214D02*
X12461071Y-18833929D01*
X12446786Y-18805357D01*
X12446786Y-18548214D01*
X12732500Y-18848214D02*
X12732500Y-18691072D01*
X12718214Y-18662500D01*
X12689643Y-18648214D01*
X12632500Y-18648214D01*
X12603928Y-18662500D01*
X12732500Y-18833929D02*
X12703928Y-18848214D01*
X12632500Y-18848214D01*
X12603928Y-18833929D01*
X12589643Y-18805357D01*
X12589643Y-18776786D01*
X12603928Y-18748214D01*
X12632500Y-18733929D01*
X12703928Y-18733929D01*
X12732500Y-18719643D01*
X12832500Y-18648214D02*
X12946786Y-18648214D01*
X12875357Y-18548214D02*
X12875357Y-18805357D01*
X12889643Y-18833929D01*
X12918214Y-18848214D01*
X12946786Y-18848214D01*
X13161071Y-18833929D02*
X13132500Y-18848214D01*
X13075357Y-18848214D01*
X13046786Y-18833929D01*
X13032500Y-18805357D01*
X13032500Y-18691072D01*
X13046786Y-18662500D01*
X13075357Y-18648214D01*
X13132500Y-18648214D01*
X13161071Y-18662500D01*
X13175357Y-18691072D01*
X13175357Y-18719643D01*
X13032500Y-18748214D01*
X13432500Y-18848214D02*
X13432500Y-18548214D01*
X13432500Y-18833929D02*
X13403928Y-18848214D01*
X13346786Y-18848214D01*
X13318214Y-18833929D01*
X13303928Y-18819643D01*
X13289643Y-18791072D01*
X13289643Y-18705357D01*
X13303928Y-18676786D01*
X13318214Y-18662500D01*
X13346786Y-18648214D01*
X13403928Y-18648214D01*
X13432500Y-18662500D01*
X13546786Y-18962500D02*
X13561071Y-18948214D01*
X13589643Y-18905357D01*
X13603928Y-18876786D01*
X13618214Y-18833929D01*
X13632500Y-18762500D01*
X13632500Y-18705357D01*
X13618214Y-18633929D01*
X13603928Y-18591072D01*
X13589643Y-18562500D01*
X13561071Y-18519643D01*
X13546786Y-18505357D01*
M02*
