G04 #@! TF.GenerationSoftware,KiCad,Pcbnew,(5.1.10-1-10_14)*
G04 #@! TF.CreationDate,2022-03-30T11:00:48+01:00*
G04 #@! TF.ProjectId,RJ21_DSLAM_ADAPTER,524a3231-5f44-4534-9c41-4d5f41444150,rev?*
G04 #@! TF.SameCoordinates,Original*
G04 #@! TF.FileFunction,Soldermask,Bot*
G04 #@! TF.FilePolarity,Negative*
%FSLAX46Y46*%
G04 Gerber Fmt 4.6, Leading zero omitted, Abs format (unit mm)*
G04 Created by KiCad (PCBNEW (5.1.10-1-10_14)) date 2022-03-30 11:00:48*
%MOMM*%
%LPD*%
G01*
G04 APERTURE LIST*
%ADD10C,5.300000*%
%ADD11C,3.200000*%
%ADD12C,1.500000*%
G04 APERTURE END LIST*
D10*
X157200000Y-48000000D03*
X157200000Y-163000000D03*
X45200000Y-163000000D03*
X45200000Y-48000000D03*
D11*
X63775000Y-68000000D03*
X138625000Y-68000000D03*
D12*
X75280000Y-65855000D03*
X77440000Y-65855000D03*
X79600000Y-65855000D03*
X81760000Y-65855000D03*
X83920000Y-65855000D03*
X86080000Y-65855000D03*
X88240000Y-65855000D03*
X90400000Y-65855000D03*
X92560000Y-65855000D03*
X94720000Y-65855000D03*
X96880000Y-65855000D03*
X99040000Y-65855000D03*
X101200000Y-65855000D03*
X103360000Y-65855000D03*
X105520000Y-65855000D03*
X107680000Y-65855000D03*
X109840000Y-65855000D03*
X112000000Y-65855000D03*
X114160000Y-65855000D03*
X116320000Y-65855000D03*
X118480000Y-65855000D03*
X120640000Y-65855000D03*
X122800000Y-65855000D03*
X124960000Y-65855000D03*
X127120000Y-65855000D03*
X75280000Y-70145000D03*
X77440000Y-70145000D03*
X79600000Y-70145000D03*
X81760000Y-70145000D03*
X83920000Y-70145000D03*
X86080000Y-70145000D03*
X88240000Y-70145000D03*
X90400000Y-70145000D03*
X92560000Y-70145000D03*
X94720000Y-70145000D03*
X96880000Y-70145000D03*
X99040000Y-70145000D03*
X101200000Y-70145000D03*
X103360000Y-70145000D03*
X105520000Y-70145000D03*
X107680000Y-70145000D03*
X109840000Y-70145000D03*
X112000000Y-70145000D03*
X114160000Y-70145000D03*
X116320000Y-70145000D03*
X118480000Y-70145000D03*
X120640000Y-70145000D03*
X122800000Y-70145000D03*
X124960000Y-70145000D03*
X127120000Y-70145000D03*
X127120000Y-95145000D03*
X124960000Y-95145000D03*
X122800000Y-95145000D03*
X120640000Y-95145000D03*
X118480000Y-95145000D03*
X116320000Y-95145000D03*
X114160000Y-95145000D03*
X112000000Y-95145000D03*
X109840000Y-95145000D03*
X107680000Y-95145000D03*
X105520000Y-95145000D03*
X103360000Y-95145000D03*
X101200000Y-95145000D03*
X99040000Y-95145000D03*
X96880000Y-95145000D03*
X94720000Y-95145000D03*
X92560000Y-95145000D03*
X90400000Y-95145000D03*
X88240000Y-95145000D03*
X86080000Y-95145000D03*
X83920000Y-95145000D03*
X81760000Y-95145000D03*
X79600000Y-95145000D03*
X77440000Y-95145000D03*
X75280000Y-95145000D03*
X127120000Y-90855000D03*
X124960000Y-90855000D03*
X122800000Y-90855000D03*
X120640000Y-90855000D03*
X118480000Y-90855000D03*
X116320000Y-90855000D03*
X114160000Y-90855000D03*
X112000000Y-90855000D03*
X109840000Y-90855000D03*
X107680000Y-90855000D03*
X105520000Y-90855000D03*
X103360000Y-90855000D03*
X101200000Y-90855000D03*
X99040000Y-90855000D03*
X96880000Y-90855000D03*
X94720000Y-90855000D03*
X92560000Y-90855000D03*
X90400000Y-90855000D03*
X88240000Y-90855000D03*
X86080000Y-90855000D03*
X83920000Y-90855000D03*
X81760000Y-90855000D03*
X79600000Y-90855000D03*
X77440000Y-90855000D03*
X75280000Y-90855000D03*
D11*
X138625000Y-93000000D03*
X63775000Y-93000000D03*
X63775000Y-118000000D03*
X138625000Y-118000000D03*
D12*
X75280000Y-115855000D03*
X77440000Y-115855000D03*
X79600000Y-115855000D03*
X81760000Y-115855000D03*
X83920000Y-115855000D03*
X86080000Y-115855000D03*
X88240000Y-115855000D03*
X90400000Y-115855000D03*
X92560000Y-115855000D03*
X94720000Y-115855000D03*
X96880000Y-115855000D03*
X99040000Y-115855000D03*
X101200000Y-115855000D03*
X103360000Y-115855000D03*
X105520000Y-115855000D03*
X107680000Y-115855000D03*
X109840000Y-115855000D03*
X112000000Y-115855000D03*
X114160000Y-115855000D03*
X116320000Y-115855000D03*
X118480000Y-115855000D03*
X120640000Y-115855000D03*
X122800000Y-115855000D03*
X124960000Y-115855000D03*
X127120000Y-115855000D03*
X75280000Y-120145000D03*
X77440000Y-120145000D03*
X79600000Y-120145000D03*
X81760000Y-120145000D03*
X83920000Y-120145000D03*
X86080000Y-120145000D03*
X88240000Y-120145000D03*
X90400000Y-120145000D03*
X92560000Y-120145000D03*
X94720000Y-120145000D03*
X96880000Y-120145000D03*
X99040000Y-120145000D03*
X101200000Y-120145000D03*
X103360000Y-120145000D03*
X105520000Y-120145000D03*
X107680000Y-120145000D03*
X109840000Y-120145000D03*
X112000000Y-120145000D03*
X114160000Y-120145000D03*
X116320000Y-120145000D03*
X118480000Y-120145000D03*
X120640000Y-120145000D03*
X122800000Y-120145000D03*
X124960000Y-120145000D03*
X127120000Y-120145000D03*
X127120000Y-145145000D03*
X124960000Y-145145000D03*
X122800000Y-145145000D03*
X120640000Y-145145000D03*
X118480000Y-145145000D03*
X116320000Y-145145000D03*
X114160000Y-145145000D03*
X112000000Y-145145000D03*
X109840000Y-145145000D03*
X107680000Y-145145000D03*
X105520000Y-145145000D03*
X103360000Y-145145000D03*
X101200000Y-145145000D03*
X99040000Y-145145000D03*
X96880000Y-145145000D03*
X94720000Y-145145000D03*
X92560000Y-145145000D03*
X90400000Y-145145000D03*
X88240000Y-145145000D03*
X86080000Y-145145000D03*
X83920000Y-145145000D03*
X81760000Y-145145000D03*
X79600000Y-145145000D03*
X77440000Y-145145000D03*
X75280000Y-145145000D03*
X127120000Y-140855000D03*
X124960000Y-140855000D03*
X122800000Y-140855000D03*
X120640000Y-140855000D03*
X118480000Y-140855000D03*
X116320000Y-140855000D03*
X114160000Y-140855000D03*
X112000000Y-140855000D03*
X109840000Y-140855000D03*
X107680000Y-140855000D03*
X105520000Y-140855000D03*
X103360000Y-140855000D03*
X101200000Y-140855000D03*
X99040000Y-140855000D03*
X96880000Y-140855000D03*
X94720000Y-140855000D03*
X92560000Y-140855000D03*
X90400000Y-140855000D03*
X88240000Y-140855000D03*
X86080000Y-140855000D03*
X83920000Y-140855000D03*
X81760000Y-140855000D03*
X79600000Y-140855000D03*
X77440000Y-140855000D03*
X75280000Y-140855000D03*
D11*
X138625000Y-143000000D03*
X63775000Y-143000000D03*
M02*
