G04 #@! TF.GenerationSoftware,KiCad,Pcbnew,(5.1.10-1-10_14)*
G04 #@! TF.CreationDate,2022-03-30T11:00:48+01:00*
G04 #@! TF.ProjectId,RJ21_DSLAM_ADAPTER,524a3231-5f44-4534-9c41-4d5f41444150,rev?*
G04 #@! TF.SameCoordinates,Original*
G04 #@! TF.FileFunction,Legend,Bot*
G04 #@! TF.FilePolarity,Positive*
%FSLAX46Y46*%
G04 Gerber Fmt 4.6, Leading zero omitted, Abs format (unit mm)*
G04 Created by KiCad (PCBNEW (5.1.10-1-10_14)) date 2022-03-30 11:00:48*
%MOMM*%
%LPD*%
G01*
G04 APERTURE LIST*
%ADD10C,0.750000*%
%ADD11C,5.300000*%
%ADD12C,3.200000*%
%ADD13C,1.500000*%
G04 APERTURE END LIST*
D10*
X117785714Y-48507142D02*
X117785714Y-45507142D01*
X117071428Y-45507142D01*
X116642857Y-45650000D01*
X116357142Y-45935714D01*
X116214285Y-46221428D01*
X116071428Y-46792857D01*
X116071428Y-47221428D01*
X116214285Y-47792857D01*
X116357142Y-48078571D01*
X116642857Y-48364285D01*
X117071428Y-48507142D01*
X117785714Y-48507142D01*
X114928571Y-48364285D02*
X114500000Y-48507142D01*
X113785714Y-48507142D01*
X113500000Y-48364285D01*
X113357142Y-48221428D01*
X113214285Y-47935714D01*
X113214285Y-47650000D01*
X113357142Y-47364285D01*
X113500000Y-47221428D01*
X113785714Y-47078571D01*
X114357142Y-46935714D01*
X114642857Y-46792857D01*
X114785714Y-46650000D01*
X114928571Y-46364285D01*
X114928571Y-46078571D01*
X114785714Y-45792857D01*
X114642857Y-45650000D01*
X114357142Y-45507142D01*
X113642857Y-45507142D01*
X113214285Y-45650000D01*
X110500000Y-48507142D02*
X111928571Y-48507142D01*
X111928571Y-45507142D01*
X109642857Y-47650000D02*
X108214285Y-47650000D01*
X109928571Y-48507142D02*
X108928571Y-45507142D01*
X107928571Y-48507142D01*
X106928571Y-48507142D02*
X106928571Y-45507142D01*
X105928571Y-47650000D01*
X104928571Y-45507142D01*
X104928571Y-48507142D01*
X101214285Y-48507142D02*
X101214285Y-45507142D01*
X100071428Y-45507142D01*
X99785714Y-45650000D01*
X99642857Y-45792857D01*
X99500000Y-46078571D01*
X99500000Y-46507142D01*
X99642857Y-46792857D01*
X99785714Y-46935714D01*
X100071428Y-47078571D01*
X101214285Y-47078571D01*
X98214285Y-48507142D02*
X98214285Y-45507142D01*
X96785714Y-48507142D02*
X96785714Y-45507142D01*
X95071428Y-48507142D01*
X95071428Y-45507142D01*
X93071428Y-45507142D02*
X92500000Y-45507142D01*
X92214285Y-45650000D01*
X91928571Y-45935714D01*
X91785714Y-46507142D01*
X91785714Y-47507142D01*
X91928571Y-48078571D01*
X92214285Y-48364285D01*
X92500000Y-48507142D01*
X93071428Y-48507142D01*
X93357142Y-48364285D01*
X93642857Y-48078571D01*
X93785714Y-47507142D01*
X93785714Y-46507142D01*
X93642857Y-45935714D01*
X93357142Y-45650000D01*
X93071428Y-45507142D01*
X90500000Y-45507142D02*
X90500000Y-47935714D01*
X90357142Y-48221428D01*
X90214285Y-48364285D01*
X89928571Y-48507142D01*
X89357142Y-48507142D01*
X89071428Y-48364285D01*
X88928571Y-48221428D01*
X88785714Y-47935714D01*
X88785714Y-45507142D01*
X87785714Y-45507142D02*
X86071428Y-45507142D01*
X86928571Y-48507142D02*
X86928571Y-45507142D01*
X118142857Y-53471428D02*
X118285714Y-53614285D01*
X118714285Y-53757142D01*
X119000000Y-53757142D01*
X119428571Y-53614285D01*
X119714285Y-53328571D01*
X119857142Y-53042857D01*
X120000000Y-52471428D01*
X120000000Y-52042857D01*
X119857142Y-51471428D01*
X119714285Y-51185714D01*
X119428571Y-50900000D01*
X119000000Y-50757142D01*
X118714285Y-50757142D01*
X118285714Y-50900000D01*
X118142857Y-51042857D01*
X116285714Y-50757142D02*
X115714285Y-50757142D01*
X115428571Y-50900000D01*
X115142857Y-51185714D01*
X115000000Y-51757142D01*
X115000000Y-52757142D01*
X115142857Y-53328571D01*
X115428571Y-53614285D01*
X115714285Y-53757142D01*
X116285714Y-53757142D01*
X116571428Y-53614285D01*
X116857142Y-53328571D01*
X117000000Y-52757142D01*
X117000000Y-51757142D01*
X116857142Y-51185714D01*
X116571428Y-50900000D01*
X116285714Y-50757142D01*
X113714285Y-53757142D02*
X113714285Y-50757142D01*
X112000000Y-53757142D01*
X112000000Y-50757142D01*
X109571428Y-52185714D02*
X110571428Y-52185714D01*
X110571428Y-53757142D02*
X110571428Y-50757142D01*
X109142857Y-50757142D01*
X108000000Y-53757142D02*
X108000000Y-50757142D01*
X105000000Y-50900000D02*
X105285714Y-50757142D01*
X105714285Y-50757142D01*
X106142857Y-50900000D01*
X106428571Y-51185714D01*
X106571428Y-51471428D01*
X106714285Y-52042857D01*
X106714285Y-52471428D01*
X106571428Y-53042857D01*
X106428571Y-53328571D01*
X106142857Y-53614285D01*
X105714285Y-53757142D01*
X105428571Y-53757142D01*
X105000000Y-53614285D01*
X104857142Y-53471428D01*
X104857142Y-52471428D01*
X105428571Y-52471428D01*
X103571428Y-50757142D02*
X103571428Y-53185714D01*
X103428571Y-53471428D01*
X103285714Y-53614285D01*
X103000000Y-53757142D01*
X102428571Y-53757142D01*
X102142857Y-53614285D01*
X102000000Y-53471428D01*
X101857142Y-53185714D01*
X101857142Y-50757142D01*
X98714285Y-53757142D02*
X99714285Y-52328571D01*
X100428571Y-53757142D02*
X100428571Y-50757142D01*
X99285714Y-50757142D01*
X99000000Y-50900000D01*
X98857142Y-51042857D01*
X98714285Y-51328571D01*
X98714285Y-51757142D01*
X98857142Y-52042857D01*
X99000000Y-52185714D01*
X99285714Y-52328571D01*
X100428571Y-52328571D01*
X97428571Y-52185714D02*
X96428571Y-52185714D01*
X96000000Y-53757142D02*
X97428571Y-53757142D01*
X97428571Y-50757142D01*
X96000000Y-50757142D01*
X94714285Y-53757142D02*
X94714285Y-50757142D01*
X94000000Y-50757142D01*
X93571428Y-50900000D01*
X93285714Y-51185714D01*
X93142857Y-51471428D01*
X93000000Y-52042857D01*
X93000000Y-52471428D01*
X93142857Y-53042857D01*
X93285714Y-53328571D01*
X93571428Y-53614285D01*
X94000000Y-53757142D01*
X94714285Y-53757142D01*
X88428571Y-52185714D02*
X89428571Y-52185714D01*
X89428571Y-53757142D02*
X89428571Y-50757142D01*
X88000000Y-50757142D01*
X86285714Y-50757142D02*
X85714285Y-50757142D01*
X85428571Y-50900000D01*
X85142857Y-51185714D01*
X85000000Y-51757142D01*
X85000000Y-52757142D01*
X85142857Y-53328571D01*
X85428571Y-53614285D01*
X85714285Y-53757142D01*
X86285714Y-53757142D01*
X86571428Y-53614285D01*
X86857142Y-53328571D01*
X87000000Y-52757142D01*
X87000000Y-51757142D01*
X86857142Y-51185714D01*
X86571428Y-50900000D01*
X86285714Y-50757142D01*
X82000000Y-53757142D02*
X83000000Y-52328571D01*
X83714285Y-53757142D02*
X83714285Y-50757142D01*
X82571428Y-50757142D01*
X82285714Y-50900000D01*
X82142857Y-51042857D01*
X82000000Y-51328571D01*
X82000000Y-51757142D01*
X82142857Y-52042857D01*
X82285714Y-52185714D01*
X82571428Y-52328571D01*
X83714285Y-52328571D01*
X118428571Y-56007142D02*
X116428571Y-56007142D01*
X118428571Y-59007142D01*
X116428571Y-59007142D01*
X114714285Y-57578571D02*
X114714285Y-59007142D01*
X115714285Y-56007142D02*
X114714285Y-57578571D01*
X113714285Y-56007142D01*
X113000000Y-56007142D02*
X111000000Y-59007142D01*
X111000000Y-56007142D02*
X113000000Y-59007142D01*
X109857142Y-57435714D02*
X108857142Y-57435714D01*
X108428571Y-59007142D02*
X109857142Y-59007142D01*
X109857142Y-56007142D01*
X108428571Y-56007142D01*
X105714285Y-59007142D02*
X107142857Y-59007142D01*
X107142857Y-56007142D01*
X102571428Y-58150000D02*
X101142857Y-58150000D01*
X102857142Y-59007142D02*
X101857142Y-56007142D01*
X100857142Y-59007142D01*
X100000000Y-58150000D02*
X98571428Y-58150000D01*
X100285714Y-59007142D02*
X99285714Y-56007142D01*
X98285714Y-59007142D01*
X97285714Y-59007142D02*
X97285714Y-56007142D01*
X96285714Y-58150000D01*
X95285714Y-56007142D01*
X95285714Y-59007142D01*
X92285714Y-59007142D02*
X94000000Y-59007142D01*
X93142857Y-59007142D02*
X93142857Y-56007142D01*
X93428571Y-56435714D01*
X93714285Y-56721428D01*
X94000000Y-56864285D01*
X91142857Y-56292857D02*
X91000000Y-56150000D01*
X90714285Y-56007142D01*
X90000000Y-56007142D01*
X89714285Y-56150000D01*
X89571428Y-56292857D01*
X89428571Y-56578571D01*
X89428571Y-56864285D01*
X89571428Y-57292857D01*
X91285714Y-59007142D01*
X89428571Y-59007142D01*
X86571428Y-59007142D02*
X88285714Y-59007142D01*
X87428571Y-59007142D02*
X87428571Y-56007142D01*
X87714285Y-56435714D01*
X88000000Y-56721428D01*
X88285714Y-56864285D01*
X85428571Y-56292857D02*
X85285714Y-56150000D01*
X85000000Y-56007142D01*
X84285714Y-56007142D01*
X84000000Y-56150000D01*
X83857142Y-56292857D01*
X83714285Y-56578571D01*
X83714285Y-56864285D01*
X83857142Y-57292857D01*
X85571428Y-59007142D01*
X83714285Y-59007142D01*
%LPC*%
D11*
X157200000Y-48000000D03*
X157200000Y-163000000D03*
X45200000Y-163000000D03*
X45200000Y-48000000D03*
D12*
X63775000Y-68000000D03*
X138625000Y-68000000D03*
D13*
X75280000Y-65855000D03*
X77440000Y-65855000D03*
X79600000Y-65855000D03*
X81760000Y-65855000D03*
X83920000Y-65855000D03*
X86080000Y-65855000D03*
X88240000Y-65855000D03*
X90400000Y-65855000D03*
X92560000Y-65855000D03*
X94720000Y-65855000D03*
X96880000Y-65855000D03*
X99040000Y-65855000D03*
X101200000Y-65855000D03*
X103360000Y-65855000D03*
X105520000Y-65855000D03*
X107680000Y-65855000D03*
X109840000Y-65855000D03*
X112000000Y-65855000D03*
X114160000Y-65855000D03*
X116320000Y-65855000D03*
X118480000Y-65855000D03*
X120640000Y-65855000D03*
X122800000Y-65855000D03*
X124960000Y-65855000D03*
X127120000Y-65855000D03*
X75280000Y-70145000D03*
X77440000Y-70145000D03*
X79600000Y-70145000D03*
X81760000Y-70145000D03*
X83920000Y-70145000D03*
X86080000Y-70145000D03*
X88240000Y-70145000D03*
X90400000Y-70145000D03*
X92560000Y-70145000D03*
X94720000Y-70145000D03*
X96880000Y-70145000D03*
X99040000Y-70145000D03*
X101200000Y-70145000D03*
X103360000Y-70145000D03*
X105520000Y-70145000D03*
X107680000Y-70145000D03*
X109840000Y-70145000D03*
X112000000Y-70145000D03*
X114160000Y-70145000D03*
X116320000Y-70145000D03*
X118480000Y-70145000D03*
X120640000Y-70145000D03*
X122800000Y-70145000D03*
X124960000Y-70145000D03*
X127120000Y-70145000D03*
X127120000Y-95145000D03*
X124960000Y-95145000D03*
X122800000Y-95145000D03*
X120640000Y-95145000D03*
X118480000Y-95145000D03*
X116320000Y-95145000D03*
X114160000Y-95145000D03*
X112000000Y-95145000D03*
X109840000Y-95145000D03*
X107680000Y-95145000D03*
X105520000Y-95145000D03*
X103360000Y-95145000D03*
X101200000Y-95145000D03*
X99040000Y-95145000D03*
X96880000Y-95145000D03*
X94720000Y-95145000D03*
X92560000Y-95145000D03*
X90400000Y-95145000D03*
X88240000Y-95145000D03*
X86080000Y-95145000D03*
X83920000Y-95145000D03*
X81760000Y-95145000D03*
X79600000Y-95145000D03*
X77440000Y-95145000D03*
X75280000Y-95145000D03*
X127120000Y-90855000D03*
X124960000Y-90855000D03*
X122800000Y-90855000D03*
X120640000Y-90855000D03*
X118480000Y-90855000D03*
X116320000Y-90855000D03*
X114160000Y-90855000D03*
X112000000Y-90855000D03*
X109840000Y-90855000D03*
X107680000Y-90855000D03*
X105520000Y-90855000D03*
X103360000Y-90855000D03*
X101200000Y-90855000D03*
X99040000Y-90855000D03*
X96880000Y-90855000D03*
X94720000Y-90855000D03*
X92560000Y-90855000D03*
X90400000Y-90855000D03*
X88240000Y-90855000D03*
X86080000Y-90855000D03*
X83920000Y-90855000D03*
X81760000Y-90855000D03*
X79600000Y-90855000D03*
X77440000Y-90855000D03*
X75280000Y-90855000D03*
D12*
X138625000Y-93000000D03*
X63775000Y-93000000D03*
X63775000Y-118000000D03*
X138625000Y-118000000D03*
D13*
X75280000Y-115855000D03*
X77440000Y-115855000D03*
X79600000Y-115855000D03*
X81760000Y-115855000D03*
X83920000Y-115855000D03*
X86080000Y-115855000D03*
X88240000Y-115855000D03*
X90400000Y-115855000D03*
X92560000Y-115855000D03*
X94720000Y-115855000D03*
X96880000Y-115855000D03*
X99040000Y-115855000D03*
X101200000Y-115855000D03*
X103360000Y-115855000D03*
X105520000Y-115855000D03*
X107680000Y-115855000D03*
X109840000Y-115855000D03*
X112000000Y-115855000D03*
X114160000Y-115855000D03*
X116320000Y-115855000D03*
X118480000Y-115855000D03*
X120640000Y-115855000D03*
X122800000Y-115855000D03*
X124960000Y-115855000D03*
X127120000Y-115855000D03*
X75280000Y-120145000D03*
X77440000Y-120145000D03*
X79600000Y-120145000D03*
X81760000Y-120145000D03*
X83920000Y-120145000D03*
X86080000Y-120145000D03*
X88240000Y-120145000D03*
X90400000Y-120145000D03*
X92560000Y-120145000D03*
X94720000Y-120145000D03*
X96880000Y-120145000D03*
X99040000Y-120145000D03*
X101200000Y-120145000D03*
X103360000Y-120145000D03*
X105520000Y-120145000D03*
X107680000Y-120145000D03*
X109840000Y-120145000D03*
X112000000Y-120145000D03*
X114160000Y-120145000D03*
X116320000Y-120145000D03*
X118480000Y-120145000D03*
X120640000Y-120145000D03*
X122800000Y-120145000D03*
X124960000Y-120145000D03*
X127120000Y-120145000D03*
X127120000Y-145145000D03*
X124960000Y-145145000D03*
X122800000Y-145145000D03*
X120640000Y-145145000D03*
X118480000Y-145145000D03*
X116320000Y-145145000D03*
X114160000Y-145145000D03*
X112000000Y-145145000D03*
X109840000Y-145145000D03*
X107680000Y-145145000D03*
X105520000Y-145145000D03*
X103360000Y-145145000D03*
X101200000Y-145145000D03*
X99040000Y-145145000D03*
X96880000Y-145145000D03*
X94720000Y-145145000D03*
X92560000Y-145145000D03*
X90400000Y-145145000D03*
X88240000Y-145145000D03*
X86080000Y-145145000D03*
X83920000Y-145145000D03*
X81760000Y-145145000D03*
X79600000Y-145145000D03*
X77440000Y-145145000D03*
X75280000Y-145145000D03*
X127120000Y-140855000D03*
X124960000Y-140855000D03*
X122800000Y-140855000D03*
X120640000Y-140855000D03*
X118480000Y-140855000D03*
X116320000Y-140855000D03*
X114160000Y-140855000D03*
X112000000Y-140855000D03*
X109840000Y-140855000D03*
X107680000Y-140855000D03*
X105520000Y-140855000D03*
X103360000Y-140855000D03*
X101200000Y-140855000D03*
X99040000Y-140855000D03*
X96880000Y-140855000D03*
X94720000Y-140855000D03*
X92560000Y-140855000D03*
X90400000Y-140855000D03*
X88240000Y-140855000D03*
X86080000Y-140855000D03*
X83920000Y-140855000D03*
X81760000Y-140855000D03*
X79600000Y-140855000D03*
X77440000Y-140855000D03*
X75280000Y-140855000D03*
D12*
X138625000Y-143000000D03*
X63775000Y-143000000D03*
M02*
